<?xml version="1.0" encoding="UTF-8"?>
<svg version="1.1" xmlns="http://www.w3.org/2000/svg" width="974" height="256">
<path d="M0 0 C1.59707848 1.50639264 3.18151638 3.02635625 4.75 4.5625 C5.37648438 5.15289062 6.00296875 5.74328125 6.6484375 6.3515625 C19.67769786 19.73455843 24.40427489 39.33466042 24.22094727 57.43017578 C23.63034948 75.52408675 16.59206267 92.64104282 3.75 105.5625 C-4.85128609 112.95265324 -12.51452518 118.1565993 -24.0625 118 C-24.85712646 117.99097656 -25.65175293 117.98195312 -26.47045898 117.97265625 C-36.42843478 117.67956509 -43.12036186 114.60530161 -50.33984375 107.69140625 C-55.88989475 101.50576659 -57.12342873 94.62637853 -58.25 86.5625 C-59.57 86.5625 -60.89 86.5625 -62.25 86.5625 C-65.90554137 92.04581205 -66.03916212 98.42120889 -64.82421875 104.796875 C-62.33558176 113.65214774 -56.57002953 119.24126855 -48.75390625 123.75 C-48.25761719 124.018125 -47.76132813 124.28625 -47.25 124.5625 C-47.58 125.2225 -47.91 125.8825 -48.25 126.5625 C-61.38310818 125.37989784 -75.45152883 123.94552367 -86.25 115.5625 C-90.58043561 109.39490989 -89.85791993 101.84065251 -89.25 94.5625 C-87.32899377 84.86141854 -80.25125001 76.04801956 -72.25 70.5625 C-62.51330137 64.75970449 -52.39586055 61.05011963 -41.52490234 57.90820312 C-40.62336426 57.64330078 -39.72182617 57.37839844 -38.79296875 57.10546875 C-37.98883545 56.87883545 -37.18470215 56.65220215 -36.35620117 56.41870117 C-34.02863662 55.47251259 -32.80608547 54.52346135 -31.25 52.5625 C-31.0923415 50.44207244 -31.0923415 50.44207244 -32.25 48.5625 C-35.75126243 46.83195141 -38.6145538 46.30671147 -42.49609375 46.296875 C-43.49125 46.29260498 -44.48640625 46.28833496 -45.51171875 46.28393555 C-47.08373047 46.29807495 -47.08373047 46.29807495 -48.6875 46.3125 C-49.76773438 46.31999268 -50.84796875 46.32748535 -51.9609375 46.33520508 C-73.63824924 46.62633944 -96.6441978 52.09316078 -113.671875 66.3359375 C-115.4302185 67.70257082 -117.23515662 68.62515982 -119.25 69.5625 C-123.29774366 49.72521082 -120.14185497 30.64023011 -109.25 13.5625 C-105.9862981 9.16024043 -102.18472315 5.36075877 -98.25 1.5625 C-97.54359375 0.82515625 -96.8371875 0.0878125 -96.109375 -0.671875 C-70.20711792 -26.17867777 -25.97072635 -22.72438555 0 0 Z M-90.25 17.5625 C-93.83194264 21.98510265 -97.52610875 26.62616178 -97.25 32.5625 C-95.1800512 35.23087002 -93.89171324 36.40957711 -90.578125 37.19921875 C-81.80022615 37.3440318 -75.50502238 34.97644382 -67.78125 31.19140625 C-61.4385548 28.2656276 -55.43349933 28.34931714 -48.5625 28.3125 C-47.14807617 28.2815625 -47.14807617 28.2815625 -45.70507812 28.25 C-36.96967195 28.20197028 -29.61849008 30.06379755 -21.9375 34.25 C-15.93435013 37.07199353 -9.78919447 37.86316282 -3.25 36.5625 C-0.88055635 34.65383487 -0.88055635 34.65383487 0.75 32.5625 C-2.33427934 20.13726038 -10.28627863 12.43240156 -20.96484375 5.90234375 C-44.64399353 -7.03378237 -72.03095159 -2.07066227 -90.25 17.5625 Z M-16.25 65.5625 C-18.36512938 68.2686835 -20.32323585 71.04493158 -22.2578125 73.8828125 C-24.07422289 76.32606256 -25.72932826 77.97349887 -28.125 79.8125 C-31.63688409 82.60440786 -32.54061965 85.06975779 -33.25 89.5625 C-33.57910376 93.38010367 -33.52196892 95.86746832 -32.125 99.4375 C-30.37388115 101.72237676 -30.37388115 101.72237676 -27.6875 102.6875 C-18.78103274 102.36362846 -12.37509006 96.4461314 -6.51171875 90.2421875 C-0.6338985 83.27813794 5.06727868 74.48503539 4.5625 65.0625 C4.294375 64.2375 4.02625 63.4125 3.75 62.5625 C-2.399729 59.4876355 -11.34433164 60.88553413 -16.25 65.5625 Z " fill="#8D53F9" transform="translate(158.25,79.4375)"/>
<path d="M0 0 C1.20570648 -0.00960754 2.41141296 -0.01921509 3.65365601 -0.02911377 C4.97016144 -0.03336365 6.28666687 -0.03761353 7.64306641 -0.04199219 C9.00534059 -0.04774633 10.36761476 -0.05350403 11.72988892 -0.05926514 C14.59662249 -0.06979381 17.46332792 -0.075622 20.33007812 -0.07910156 C23.97575457 -0.08454377 27.62104941 -0.10847041 31.26660728 -0.13707352 C34.08762626 -0.15586331 36.90855711 -0.16091442 39.72963333 -0.16243744 C41.71851195 -0.16688146 43.7073431 -0.18546364 45.69613647 -0.20440674 C59.34028092 -0.17131064 70.15348298 2.62687152 80.31884766 11.98925781 C87.00280672 19.06788874 88.85537639 28.93792153 88.61962891 38.42675781 C87.3057731 52.79705572 82.02290367 64.3888333 71.36962891 74.16113281 C61.89020136 81.16113281 61.89020136 81.16113281 58.36962891 81.16113281 C58.81951172 82.2684375 59.26939453 83.37574219 59.73291016 84.51660156 C63.7931338 94.5609339 67.75148692 104.64354727 71.61947632 114.76333618 C72.11923907 116.06931481 72.6207228 117.37463618 73.12393188 118.67929077 C73.83582461 120.52679039 74.54037479 122.37711418 75.24462891 124.22753906 C75.65455078 125.2994751 76.06447266 126.37141113 76.48681641 127.47583008 C77.36962891 130.16113281 77.36962891 130.16113281 77.36962891 133.16113281 C66.80962891 133.16113281 56.24962891 133.16113281 45.36962891 133.16113281 C39.5789222 119.26343671 39.5789222 119.26343671 37.25634766 113.09472656 C36.99706985 112.40854752 36.73779205 111.72236847 36.47065735 111.01539612 C35.93446001 109.59361907 35.39939492 108.17141448 34.86547852 106.7487793 C34.04580357 104.56850831 33.21852818 102.39121084 32.39111328 100.21386719 C31.86656141 98.82016128 31.34245572 97.42628733 30.81884766 96.03222656 C30.57204758 95.38539413 30.3252475 94.73856171 30.07096863 94.0721283 C29.0282912 91.27268688 28.36962891 89.17796998 28.36962891 86.16113281 C22.09962891 86.16113281 15.82962891 86.16113281 9.36962891 86.16113281 C8.75087891 90.58519531 8.75087891 90.58519531 8.11962891 95.09863281 C6.89579119 103.71342239 5.59784394 112.3157344 4.24462891 120.91113281 C4.07415039 122.01191162 3.90367187 123.11269043 3.72802734 124.24682617 C3.56592773 125.26526611 3.40382812 126.28370605 3.23681641 127.33300781 C3.09356934 128.24147461 2.95032227 129.14994141 2.80273438 130.0859375 C2.36962891 132.16113281 2.36962891 132.16113281 1.36962891 133.16113281 C-0.77595936 133.24888886 -2.92441531 133.268085 -5.07177734 133.25878906 C-6.37695312 133.25556641 -7.68212891 133.25234375 -9.02685547 133.24902344 C-10.41552799 133.24066682 -11.80419987 133.23220186 -13.19287109 133.22363281 C-14.58544765 133.21861947 -15.97802591 133.21405628 -17.37060547 133.20996094 C-20.7905698 133.19812715 -24.21044953 133.18164161 -27.63037109 133.16113281 C-27.02981576 125.30462941 -25.99266513 117.59063737 -24.69677734 109.82080078 C-24.5031662 108.64061874 -24.30955505 107.46043671 -24.1100769 106.24449158 C-23.58414269 103.04426245 -23.05468985 99.84464234 -22.52332687 96.64531088 C-21.96620514 93.28697579 -21.41299062 89.9279966 -20.85913086 86.56912231 C-19.93060001 80.94208898 -18.99872869 75.31561638 -18.06494141 69.68945312 C-16.9847563 63.18090589 -15.91043153 56.67141086 -14.83905506 50.16140831 C-13.91716897 44.56072244 -12.9921355 38.96056312 -12.06444836 33.36083519 C-11.51109127 30.02061683 -10.95884493 26.68022494 -10.40945435 23.33935165 C-9.79820484 19.62807929 -9.18180072 15.91770027 -8.56396484 12.20751953 C-8.38211639 11.09695694 -8.20026794 9.98639435 -8.01290894 8.84217834 C-7.84469635 7.8385878 -7.67648376 6.83499725 -7.50317383 5.80099487 C-7.35790756 4.92390806 -7.2126413 4.04682125 -7.06297302 3.14315605 C-6.17923249 -0.90581867 -3.71611639 0.02380213 0 0 Z M19.36962891 25.16113281 C17.38962891 37.37113281 15.40962891 49.58113281 13.36962891 62.16113281 C17.30900391 62.22300781 21.24837891 62.28488281 25.30712891 62.34863281 C26.53036865 62.37594482 27.7536084 62.40325684 29.01391602 62.43139648 C37.25059925 62.4935677 43.69721764 61.51701928 50.68212891 57.03613281 C55.1801745 52.22427008 57.5500716 47.10124086 57.80712891 40.47363281 C57.52483452 35.07240029 55.86609574 31.54536463 51.86962891 27.84863281 C47.87720856 25.15374908 44.88009645 25.04136536 40.17041016 25.06347656 C39.08155518 25.06597412 37.9927002 25.06847168 36.87084961 25.07104492 C34.79743286 25.08470093 34.79743286 25.08470093 32.68212891 25.09863281 C28.28900391 25.11925781 23.89587891 25.13988281 19.36962891 25.16113281 Z " fill="#9056FC" transform="translate(231.63037109375,67.8388671875)"/>
<path d="M0 0 C1.56047445 0.00015913 3.12095416 0.00585397 4.68139648 0.01586914 C5.5012352 0.01728409 6.32107391 0.01869904 7.16575623 0.02015686 C9.79470406 0.0257725 12.42356797 0.0383276 15.05249023 0.05102539 C16.8304838 0.05603838 18.60847869 0.06060163 20.38647461 0.06469727 C24.75434569 0.07574701 29.12215371 0.09302208 33.48999023 0.11352539 C34.94991527 3.51563125 35.91545751 6.71035331 36.57243347 10.35070801 C36.76173935 11.38529648 36.95104523 12.41988495 37.14608765 13.48582458 C37.34618439 14.61013382 37.54628113 15.73444305 37.75244141 16.89282227 C37.9689183 18.08521011 38.1853952 19.27759796 38.40843201 20.50611877 C38.99916344 23.76773133 39.58503046 27.03013859 40.16814971 30.29311562 C40.65593413 33.01966462 41.14679586 35.74565617 41.63756257 38.47166967 C42.79516983 44.902658 43.94691322 51.33467813 45.09521484 57.76733398 C46.27928351 64.39965488 47.47408699 71.02997958 48.6740343 77.65944433 C49.70484667 83.35691515 50.72856041 89.05563107 51.74669439 94.75538111 C52.35445992 98.1572272 52.96499499 101.55851732 53.58254051 104.95860291 C54.27058092 108.74866391 54.94383662 112.54126868 55.61572266 116.33422852 C55.82189209 117.45853775 56.02806152 118.58284698 56.24047852 119.7412262 C56.42132492 120.77581467 56.60217133 121.81040314 56.78849792 122.87634277 C56.94905765 123.77228401 57.10961737 124.66822525 57.27504253 125.59131622 C57.48999023 128.11352539 57.48999023 128.11352539 56.48999023 133.11352539 C46.58999023 133.11352539 36.68999023 133.11352539 26.48999023 133.11352539 C24.23730992 125.2291443 24.23730992 125.2291443 23.63842773 121.41430664 C23.50952148 120.59768555 23.38061523 119.78106445 23.24780273 118.93969727 C23.12147461 118.11018555 22.99514648 117.28067383 22.86499023 116.42602539 C22.66389648 115.16435547 22.66389648 115.16435547 22.45874023 113.87719727 C21.88743864 110.20162938 21.48999023 106.8524679 21.48999023 103.11352539 C6.30999023 103.44352539 -8.87000977 103.77352539 -24.51000977 104.11352539 C-29.07457216 113.28223884 -29.07457216 113.28223884 -33.63476562 122.453125 C-34.20074463 123.58758057 -34.76672363 124.72203613 -35.34985352 125.89086914 C-35.93114014 127.0586792 -36.51242676 128.22648926 -37.11132812 129.4296875 C-38.51000977 132.11352539 -38.51000977 132.11352539 -39.51000977 133.11352539 C-41.80152394 133.20143514 -44.09573501 133.22046577 -46.38891602 133.21118164 C-47.41890968 133.20905922 -47.41890968 133.20905922 -48.4697113 133.20689392 C-50.67068778 133.20128018 -52.87156385 133.18872546 -55.07250977 133.17602539 C-56.56144059 133.17101216 -58.05037301 133.16644894 -59.53930664 133.16235352 C-63.19624051 133.15130632 -66.85311535 133.13403252 -70.51000977 133.11352539 C-69.92381571 128.04049914 -67.56216944 124.09555608 -65.15844727 119.68774414 C-64.24161725 117.97660312 -63.32597369 116.26482598 -62.41137695 114.55249023 C-61.93341675 113.66011658 -61.45545654 112.76774292 -60.9630127 111.84832764 C-58.56911903 107.34260666 -56.24560105 102.80137786 -53.92407227 98.25805664 C-53.4543248 97.33970032 -52.98457733 96.42134399 -52.50059509 95.47515869 C-51.04421478 92.6260513 -49.58951544 89.7760902 -48.13500977 86.92602539 C-47.63143951 85.94039612 -47.12786926 84.95476685 -46.60903931 83.93927002 C-40.45299899 71.88984971 -34.3332955 59.8248013 -28.31567383 47.70556641 C-25.03414682 41.11271351 -21.63257452 34.59018066 -18.17504883 28.08813477 C-14.54139507 21.23475038 -11.07412909 14.30231971 -7.64428711 7.3449707 C-7.24806152 6.54414062 -6.85183594 5.74331055 -6.44360352 4.91821289 C-6.09354248 4.20648926 -5.74348145 3.49476562 -5.3828125 2.76147461 C-3.79849512 -0.22989387 -3.79611535 0.122779 0 0 Z M9.48999023 33.11352539 C6.9944658 38.05472512 4.50446043 42.99865443 2.01928711 47.94506836 C1.17505506 49.62354346 0.32938166 51.30129447 -0.51782227 52.97827148 C-1.74308059 55.40422517 -2.96294025 57.8328318 -4.18188477 60.26196289 C-4.55496765 60.99780609 -4.92805054 61.73364929 -5.31243896 62.49179077 C-8.05060136 67.96696682 -10.21567768 73.37769518 -12.51000977 79.11352539 C-2.61000977 79.11352539 7.28999023 79.11352539 17.48999023 79.11352539 C15.9000624 63.64786378 13.22177835 48.40997784 10.48999023 33.11352539 C10.15999023 33.11352539 9.82999023 33.11352539 9.48999023 33.11352539 Z " fill="#A172FC" transform="translate(633.510009765625,67.886474609375)"/>
<path d="M0 0 C1.75171509 0.07069702 1.75171509 0.07069702 3.53881836 0.14282227 C5.42890625 0.21533203 5.42890625 0.21533203 7.35717773 0.28930664 C8.69767719 0.34583669 10.03817193 0.40247878 11.37866211 0.45922852 C12.72304457 0.51243456 14.06744554 0.56517504 15.41186523 0.61743164 C18.71351098 0.74760405 22.01484882 0.88344985 25.31616211 1.02172852 C24.77908792 9.61909934 23.81467222 18.02402153 22.36669922 26.51318359 C22.17148178 27.68551041 21.97626434 28.85783722 21.77513123 30.06568909 C21.13664101 33.89180284 20.49015004 37.71651645 19.84350586 41.54125977 C19.39539651 44.21292003 18.94900896 46.88486719 18.50257874 49.55680847 C17.45178521 55.83994087 16.39521604 62.1220872 15.33649117 68.40388745 C14.13001286 75.56411442 12.93009474 82.72543596 11.73068607 89.88685 C9.26639898 104.5996948 6.79314398 119.31101456 4.31616211 134.02172852 C-5.25383789 134.02172852 -14.82383789 134.02172852 -24.68383789 134.02172852 C-24.18883789 127.58672852 -24.18883789 127.58672852 -23.68383789 121.02172852 C-25.00383789 122.67172852 -26.32383789 124.32172852 -27.68383789 126.02172852 C-30.23461914 127.97094727 -30.23461914 127.97094727 -32.99633789 129.70922852 C-33.8999707 130.2905957 -34.80360352 130.87196289 -35.73461914 131.47094727 C-44.45973318 136.05885491 -55.15745541 136.50960846 -64.69946289 134.33422852 C-73.44139305 131.11634011 -79.66802426 125.40639434 -83.68383789 117.02172852 C-90.16773802 101.76242943 -87.5674972 82.0018266 -81.87036133 66.85961914 C-75.50955357 51.46125175 -65.71755166 41.08685121 -50.68383789 34.02172852 C-42.80026566 30.75059351 -33.20586354 30.779269 -25.24633789 33.70922852 C-21.25352063 35.52007352 -18.50171055 37.60612529 -15.68383789 41.02172852 C-15.08571289 41.74360352 -14.48758789 42.46547852 -13.87133789 43.20922852 C-12.68383789 45.02172852 -12.68383789 45.02172852 -12.68383789 47.02172852 C-12.02383789 47.02172852 -11.36383789 47.02172852 -10.68383789 47.02172852 C-10.64645508 46.36068115 -10.60907227 45.69963379 -10.57055664 45.01855469 C-9.97978957 36.44446835 -8.6232263 28.09125527 -7.09985352 19.64501953 C-6.67787665 17.30111636 -6.26628032 14.95554502 -5.85571289 12.60961914 C-5.59068989 11.1179756 -5.32508721 9.62643491 -5.05883789 8.13500977 C-4.93589355 7.43410721 -4.81294922 6.73320465 -4.6862793 6.01106262 C-3.59760511 0.02912643 -3.59760511 0.02912643 0 0 Z M-48.08227539 64.02172852 C-54.76114845 72.36217487 -57.71600916 85.52798725 -56.68383789 96.02172852 C-55.69013168 101.38774207 -54.49143853 106.93240039 -49.74243164 110.23657227 C-44.06026755 112.40377337 -37.68985498 112.16793978 -32.05102539 110.01782227 C-23.31064898 104.81803901 -19.15413136 95.5526369 -16.68383789 86.02172852 C-14.82793251 77.75451365 -15.07594633 69.77004175 -18.68383789 62.02172852 C-21.37417371 58.87941628 -24.64548282 56.21236604 -28.85571289 55.81860352 C-37.33114993 55.66450466 -42.24956683 57.85498818 -48.08227539 64.02172852 Z " fill="#9863FB" transform="translate(450.683837890625,66.978271484375)"/>
<path d="M0 0 C8.53068186 6.71141459 13.53544364 15.95097932 15.1796875 26.71484375 C15.71310653 35.15030743 14.93466577 43.45235482 13.1796875 51.71484375 C12.1796875 52.71484375 12.1796875 52.71484375 9.51585388 52.83509827 C7.7338131 52.83176735 7.7338131 52.83176735 5.91577148 52.82836914 C4.9353186 52.82858818 4.9353186 52.82858818 3.93505859 52.82881165 C1.76526622 52.82811258 -0.40444129 52.82032053 -2.57421875 52.8125 C-4.07494561 52.8106358 -5.57567307 52.80921191 -7.07640076 52.80821228 C-11.03349476 52.80438727 -14.99055228 52.79455715 -18.94763184 52.7835083 C-22.98266099 52.77329381 -27.01769603 52.76871458 -31.05273438 52.76367188 C-38.97527719 52.75293486 -46.89779031 52.73585865 -54.8203125 52.71484375 C-54.53213132 54.64044366 -54.23479343 56.5646747 -53.93359375 58.48828125 C-53.76899658 59.55997559 -53.60439941 60.63166992 -53.43481445 61.73583984 C-52.60896534 65.73941987 -51.58211143 67.7163192 -48.8203125 70.71484375 C-42.65270767 73.80939112 -34.99773174 73.90452949 -28.40625 72.02734375 C-24.8193984 70.36548201 -22.50283076 68.45451884 -19.9453125 65.46484375 C-18.16573627 63.57076396 -17.25628003 62.80012442 -14.68359375 62.296875 C-12.02962595 62.2755065 -9.46267091 62.46284772 -6.8203125 62.71484375 C-5.68851563 62.78445312 -4.55671875 62.8540625 -3.390625 62.92578125 C5.54363778 63.50282718 5.54363778 63.50282718 9.1796875 64.71484375 C8.15422645 73.65842173 2.29910458 80.51663807 -4.51953125 86.1171875 C-17.79682137 95.33690169 -32.65422687 98.16159928 -48.6328125 96.02734375 C-60.95615417 93.69508739 -69.91698101 88.66572715 -77.5546875 78.37890625 C-84.60680454 66.55623945 -84.41319827 51.65806866 -81.2578125 38.58984375 C-77.58872188 24.89868461 -70.96400292 14.40014583 -60.8203125 4.71484375 C-59.83417969 3.77318359 -59.83417969 3.77318359 -58.828125 2.8125 C-43.40270799 -10.19648902 -16.55093723 -11.09726775 0 0 Z M-44.703125 22.65234375 C-47.54404902 26.2755512 -49.07914989 29.36193721 -50.8203125 33.71484375 C-38.2803125 33.71484375 -25.7403125 33.71484375 -12.8203125 33.71484375 C-12.62922006 24.66019561 -12.62922006 24.66019561 -16.8203125 17.71484375 C-25.475092 12.083568 -37.94781767 15.70082417 -44.703125 22.65234375 Z " fill="#9B6AFB" transform="translate(554.8203125,106.28515625)"/>
<path d="M0 0 C5.83091871 5.14720479 9.68708786 10.39155008 11.24609375 18.07421875 C11.375 20.25 11.375 20.25 10.375 25.25 C1.795 25.58 -6.785 25.91 -15.625 26.25 C-16.945 23.61 -18.265 20.97 -19.625 18.25 C-25.32030287 15.40234856 -30.87736236 15.24218118 -37.05078125 16.90234375 C-40.01399757 18.16455472 -42.05895694 19.14396608 -43.55859375 22.07421875 C-44.2287663 24.19510233 -44.2287663 24.19510233 -44.625 27.25 C-41.93919275 30.7419192 -38.82399228 31.16976596 -34.6484375 32.1171875 C-33.24086397 32.44912782 -31.83331261 32.78116217 -30.42578125 33.11328125 C-28.22177274 33.61949539 -26.01681696 34.12119996 -23.81103516 34.61962891 C-2.72599463 39.42399582 -2.72599463 39.42399582 4.21875 48.375 C8.00363334 54.51264866 7.99346255 61.37153416 6.375 68.25 C1.58217094 80.53609538 -6.41579886 87.61987964 -18.3125 93.0625 C-33.17629027 98.81438819 -50.68650401 98.71611138 -65.71484375 93.5390625 C-73.24980559 90.20142839 -79.43418235 84.96670546 -82.625 77.25 C-85.25264085 67.50528169 -85.25264085 67.50528169 -83.625 64.25 C-74.49115367 62.68335322 -64.86767836 63.13494591 -55.625 63.25 C-55.35945312 63.80429688 -55.09390625 64.35859375 -54.8203125 64.9296875 C-54.46710937 65.65414062 -54.11390625 66.37859375 -53.75 67.125 C-53.40195312 67.84429687 -53.05390625 68.56359375 -52.6953125 69.3046875 C-51.40871177 71.6431078 -50.37533061 72.99935423 -47.80078125 73.859375 C-40.83373981 75.11019034 -34.81687381 74.71744933 -28.625 71.25 C-26.12222089 69.58211068 -26.12222089 69.58211068 -24.625 67.25 C-24.29051741 64.082168 -24.29051741 64.082168 -24.625 61.25 C-32.05273393 57.61698645 -39.97334954 56.27386353 -48.02148438 54.58789062 C-56.22435603 52.79188349 -63.94853365 51.04988223 -69.5 44.25 C-70.05429687 43.59 -70.60859375 42.93 -71.1796875 42.25 C-75.55883141 36.19021166 -76.06773855 30.0624023 -75.0625 22.8125 C-73.01964373 13.08205301 -66.63514069 5.87675527 -58.625 0.25 C-42.04892424 -8.67209542 -16.27238169 -11.34417466 0 0 Z " fill="#AC83FC" transform="translate(923.625,105.75)"/>
<path d="M0 0 C9.9 0 19.8 0 30 0 C33.63 10.56 37.26 21.12 41 32 C43.57522443 28.78096946 46.06238579 25.59531884 48.44433594 22.24072266 C49.29973454 21.04296303 50.1698114 19.85559469 51.05175781 18.67724609 C53.31921371 15.60456293 55.19772811 12.75826325 56.59765625 9.1953125 C59.93016007 1.99458321 59.93016007 1.99458321 64 0 C73.85059051 -1.64104216 84.09943216 -0.7822328 94 0 C92.66558629 2.82749964 91.16230649 5.29610568 89.3046875 7.80859375 C88.48931519 8.91448853 88.48931519 8.91448853 87.6574707 10.04272461 C87.06925537 10.83300049 86.48104004 11.62327637 85.875 12.4375 C84.96077271 13.67222046 84.96077271 13.67222046 84.02807617 14.93188477 C77.29945901 23.99215882 70.45172432 32.96219646 63.5871582 41.91967773 C63.063396 42.60618408 62.53963379 43.29269043 62 44 C61.41629639 44.60465088 60.83259277 45.20930176 60.23120117 45.83227539 C58.31520805 49.20568466 59.09324387 51.27285301 60 55 C61.19788172 58.33486357 62.59918327 61.56237532 64.03515625 64.80078125 C64.63232704 66.17716011 64.63232704 66.17716011 65.24156189 67.5813446 C66.50719153 70.49530105 67.78413704 73.40410994 69.0625 76.3125 C70.34269721 79.2394538 71.62043817 82.1674317 72.89414978 85.09721375 C73.68568341 86.91642744 74.4812775 88.73388077 75.28126526 90.5493927 C75.6384111 91.36751938 75.99555695 92.18564606 76.36352539 93.02856445 C76.68027725 93.74913528 76.99702911 94.46970612 77.32337952 95.21211243 C78 97 78 97 78 99 C72.74633353 100.54081702 67.36916629 100.26465796 61.9375 100.3125 C60.28524414 100.35600586 60.28524414 100.35600586 58.59960938 100.40039062 C57.01696289 100.41295898 57.01696289 100.41295898 55.40234375 100.42578125 C54.43804443 100.44036377 53.47374512 100.45494629 52.48022461 100.4699707 C50 100 50 100 48.33105469 98.38061523 C46.71423257 95.48889982 45.49525761 92.57596088 44.30078125 89.484375 C44.0608696 88.86854553 43.82095795 88.25271606 43.57377625 87.6182251 C42.81414125 85.66436853 42.06321506 83.70729878 41.3125 81.75 C40.79679685 80.41904871 40.28052672 79.08831697 39.76367188 77.7578125 C38.50254241 74.50772343 37.24919749 71.25469673 36 68 C32.6679939 71.24578448 29.9615385 74.68942379 27.3125 78.5 C23.91741974 83.32015994 20.48017017 88.09952856 16.9375 92.8125 C16.20402344 93.78832031 15.47054687 94.76414062 14.71484375 95.76953125 C13 98 13 98 12 99 C8.3054154 99.3866128 4.58574361 99.4711399 0.875 99.625 C-0.15882813 99.6765625 -1.19265625 99.728125 -2.2578125 99.78125 C-7.66594098 100.01578618 -12.67644076 100.01042059 -18 99 C-14.20764361 92.95143157 -9.96671622 87.31373116 -5.53100586 81.72924805 C-1.17778366 76.24668314 3.07943083 70.69456798 7.32055664 65.125 C7.8283667 64.45855469 8.33617676 63.79210937 8.859375 63.10546875 C9.60477539 62.09552856 9.60477539 62.09552856 10.36523438 61.06518555 C12 59 12 59 14.08789062 56.89770508 C16.20408429 54.65138866 17.73300984 52.81913773 19 50 C18.61731539 45.68152132 16.87780641 42.18127743 15 38.3125 C14.02337558 36.10810035 13.04681443 33.90367266 12.0703125 31.69921875 C11.55887695 30.58981934 11.04744141 29.48041992 10.52050781 28.33740234 C8.16102104 23.15850316 6.02187372 17.89463927 3.875 12.625 C3.48570312 11.69856689 3.09640625 10.77213379 2.6953125 9.81762695 C2.16164063 8.53505005 2.16164063 8.53505005 1.6171875 7.2265625 C1.30378418 6.47971191 0.99038086 5.73286133 0.66748047 4.96337891 C0 3 0 3 0 0 Z " fill="#A679FB" transform="translate(710,101)"/>
<path d="M0 0 C9.57 0 19.14 0 29 0 C27.85100282 14.93696332 27.85100282 14.93696332 26.6171875 22.13916016 C26.48209778 22.95553955 26.34700806 23.77191895 26.20782471 24.61303711 C25.76903923 27.25599558 25.32222718 29.89752061 24.875 32.5390625 C24.56451397 34.39652487 24.25446307 36.25406003 23.94482422 38.11166382 C23.29939391 41.97656827 22.65023145 45.84081951 21.99804688 49.70458984 C21.16187452 54.65894178 20.33292463 59.61446798 19.50643921 64.57044411 C18.8684978 68.39339962 18.22795163 72.21591474 17.58648682 76.03828049 C17.2797471 77.86666227 16.97355076 79.69513529 16.66790771 81.52370071 C16.2420234 84.06782081 15.81291316 86.61137493 15.3828125 89.15478516 C15.25706848 89.90903778 15.13132446 90.66329041 15.00177002 91.44039917 C14.49988091 94.39102626 13.94832785 97.15501645 13 100 C3.43 100 -6.14 100 -16 100 C-17.4240679 97.15186421 -16.6988183 95.38632483 -16.13671875 92.2578125 C-15.91395264 90.99195313 -15.69118652 89.72609375 -15.46166992 88.421875 C-15.27367325 87.37870117 -15.27367325 87.37870117 -15.08187866 86.31445312 C-14.38467357 82.44381299 -13.70909299 78.5693821 -13.03125 74.6953125 C-12.80087288 73.3830368 -12.80087288 73.3830368 -12.56584167 72.04425049 C-11.13313393 63.84705797 -9.76539574 55.63932683 -8.40625 47.4296875 C-8.29449747 46.75524723 -8.18274494 46.08080696 -8.06760597 45.38592911 C-7.04543791 39.21684115 -6.024648 33.04752711 -5.00814819 26.87750244 C-4.36602506 22.98041651 -3.72014749 19.08395702 -3.07421875 15.1875 C-2.87965088 14.00147186 -2.68508301 12.81544373 -2.48461914 11.59347534 C-2.30366699 10.50430817 -2.12271484 9.41514099 -1.9362793 8.29296875 C-1.77894821 7.3393042 -1.62161713 6.38563965 -1.45951843 5.40307617 C-1 3 -1 3 0 0 Z " fill="#935BFD" transform="translate(333,101)"/>
<path d="M0 0 C9.9 0 19.8 0 30 0 C26.47508691 22.75431704 22.79713997 45.4825166 19.0276413 68.19749451 C18.68676561 70.25443153 18.34714669 72.3115725 18.00787354 74.36877441 C17.36728528 78.25172013 16.72110163 82.1337227 16.07421875 86.015625 C15.87965591 87.19729248 15.68509308 88.37895996 15.4846344 89.59643555 C15.30367722 90.67610596 15.12272003 91.75577637 14.9362793 92.86816406 C14.77894821 93.81500061 14.62161713 94.76183716 14.45951843 95.73736572 C14 98 14 98 13 100 C3.43 100 -6.14 100 -16 100 C-15.37086061 93.07946669 -14.68425496 86.3948049 -13.50952148 79.58129883 C-13.3630719 78.71162476 -13.21662231 77.84195068 -13.06573486 76.94592285 C-12.58812814 74.11560924 -12.10467402 71.28632978 -11.62109375 68.45703125 C-11.2858549 66.47741254 -10.9509864 64.49773109 -10.61647034 62.51799011 C-9.74063423 57.34058646 -8.85981172 52.16404351 -7.97790527 46.9876709 C-7.07662514 41.69216657 -6.18012257 36.39585371 -5.28320312 31.09960938 C-3.52677821 20.73228013 -1.76463666 10.36593468 0 0 Z " fill="#A97EFB" transform="translate(812,101)"/>
<path d="M0 0 C-0.33 0.99 -0.66 1.98 -1 3 C-2.70605469 3.8371582 -2.70605469 3.8371582 -4.921875 4.48828125 C-5.73720703 4.73658691 -6.55253906 4.98489258 -7.39257812 5.24072266 C-8.25302734 5.49128418 -9.11347656 5.7418457 -10 6 C-28.7790571 11.73722952 -45.13678669 17.58651166 -56 35 C-58.36064486 39.43836599 -59.71642058 44.16189295 -61 49 C-65.46855163 47.52387171 -67.05537049 44.08773691 -69.1875 40.1875 C-69.54263672 39.57068359 -69.89777344 38.95386719 -70.26367188 38.31835938 C-73.87494419 31.87014828 -73.87494419 31.87014828 -74 28 C-72.18323007 24.89834344 -69.55630082 22.51162761 -67 20 C-66.47019531 19.47148437 -65.94039062 18.94296875 -65.39453125 18.3984375 C-53.52573061 7.43811296 -15.95141844 -10.63427896 0 0 Z " fill="#8B54F4" transform="translate(116,130)"/>
<path d="M0 0 C3.71690638 3.4381384 5.31945776 5.65752946 5.875 10.75 C5.291754 16.29083701 3.64271983 19.21946364 -0.375 23.0625 C-5.79032848 26.9615365 -9.39172674 27.80073379 -15.98828125 26.9921875 C-20.05120271 25.89273441 -22.86685451 23.54957795 -25.5 20.3125 C-26.85156211 16.25781366 -27.35381662 12.5352074 -25.78125 8.44140625 C-20.54476342 -1.3770061 -10.14944812 -4.89348391 0 0 Z " fill="#945CFC" transform="translate(362.5,62.6875)"/>
<path d="M0 0 C5.73871145 5.04311007 5.73871145 5.04311007 6.44921875 8.92578125 C6.7154735 14.38859419 5.64718073 17.53079801 2.0625 21.8125 C1.464375 22.555 0.86625 23.2975 0.25 24.0625 C-3.93758946 27.41257157 -8.33752172 28.04394611 -13.5625 27.6875 C-17.65911239 27.10127267 -20.00863444 25.83011906 -22.9375 22.8125 C-25.92230598 18.33529103 -25.53144796 14.06029341 -24.9375 8.8125 C-22.95170624 4.44375372 -20.37830287 1.7297017 -16.06640625 -0.49609375 C-10.78779281 -2.21043243 -5.12010459 -2.06982951 0 0 Z " fill="#A980FA" transform="translate(840.9375,62.1875)"/>
<path d="M0 0 C9.57 0 19.14 0 29 0 C28.3176762 8.8702094 27.43435108 17.3603255 25.93359375 26.08203125 C25.63606956 27.85231941 25.63606956 27.85231941 25.33253479 29.65837097 C24.70624581 33.37734833 24.07202054 37.09491921 23.4375 40.8125 C23.00793485 43.35472843 22.57889365 45.89704545 22.15039062 48.43945312 C21.10630756 54.62733786 20.05572942 60.81409222 19 67 C18.67 67 18.34 67 18 67 C17.72324263 57.74400342 18.46859805 49.12004552 20 40 C20.33 40 20.66 40 21 40 C21.33 35.71 21.66 31.42 22 27 C22.33 27 22.66 27 23 27 C23.08564209 26.34926514 23.17128418 25.69853027 23.25952148 25.02807617 C23.64914094 22.08080626 24.04326783 19.13415629 24.4375 16.1875 C24.57220703 15.16333984 24.70691406 14.13917969 24.84570312 13.08398438 C24.97783203 12.10107422 25.10996094 11.11816406 25.24609375 10.10546875 C25.36654053 9.19949951 25.4869873 8.29353027 25.61108398 7.36010742 C26 5 26 5 27 2 C18.75 2 10.5 2 2 2 C1.34 6.95 0.68 11.9 0 17 C-0.66 17 -1.32 17 -2 17 C-1.96519531 17.75023438 -1.93039062 18.50046875 -1.89453125 19.2734375 C-1.70531969 26.42743651 -2.50652065 32.29135319 -5 39 C-5.33 39 -5.66 39 -6 39 C-6.10325333 34.21300811 -5.76730275 29.79173027 -4.94140625 25.078125 C-4.72033203 23.80582031 -4.49925781 22.53351563 -4.27148438 21.22265625 C-4.15506592 20.57055176 -4.03864746 19.91844727 -3.91870117 19.24658203 C-3.56112319 17.24228268 -3.21247459 15.23658239 -2.86523438 13.23046875 C-1.14773261 3.44319784 -1.14773261 3.44319784 0 0 Z " fill="#916BDE" transform="translate(333,101)"/>
<path d="M0 0 C1.01252838 0.00707474 2.02505676 0.01414948 3.06826782 0.0214386 C6.28846467 0.04933046 9.50689506 0.11206117 12.7265625 0.17578125 C14.9153394 0.20087076 17.10414366 0.22368279 19.29296875 0.24414062 C24.64643162 0.29913965 29.99887084 0.3827135 35.3515625 0.48828125 C36.46500821 2.71517267 36.54799731 4.20562944 36.7265625 6.67578125 C37.04298008 9.94370055 37.47771677 11.75572829 38.9140625 14.80078125 C40.3515625 18.48828125 40.3515625 18.48828125 40.3515625 30.48828125 C49.5915625 30.48828125 58.8315625 30.48828125 68.3515625 30.48828125 C68.3515625 27.84828125 68.3515625 25.20828125 68.3515625 22.48828125 C68.6815625 22.48828125 69.0115625 22.48828125 69.3515625 22.48828125 C69.54568431 23.96659346 69.73168381 25.44597441 69.9140625 26.92578125 C70.07068359 28.16134766 70.07068359 28.16134766 70.23046875 29.421875 C70.29041016 30.44474609 70.29041016 30.44474609 70.3515625 31.48828125 C69.3515625 32.48828125 69.3515625 32.48828125 66.48413086 32.60180664 C65.23253174 32.59656982 63.98093262 32.59133301 62.69140625 32.5859375 C61.69470665 32.58381508 61.69470665 32.58381508 60.6778717 32.58164978 C58.54822351 32.57603643 56.41867911 32.56348179 54.2890625 32.55078125 C52.84830881 32.54576796 51.40755347 32.54120476 49.96679688 32.53710938 C46.42835148 32.5260627 42.88996711 32.50878917 39.3515625 32.48828125 C38.20437732 28.60329337 37.12848156 24.79244607 36.5 20.7890625 C36.30664062 19.56413086 36.30664062 19.56413086 36.109375 18.31445312 C35.98304688 17.48494141 35.85671875 16.65542969 35.7265625 15.80078125 C35.52546875 14.53911133 35.52546875 14.53911133 35.3203125 13.25195312 C34.74901091 9.57638524 34.3515625 6.22722376 34.3515625 2.48828125 C19.1715625 2.81828125 3.9915625 3.14828125 -11.6484375 3.48828125 C-12.6384375 5.46828125 -13.6284375 7.44828125 -14.6484375 9.48828125 C-15.3084375 8.16828125 -15.9684375 6.84828125 -16.6484375 5.48828125 C-11.42224086 -0.04016249 -7.39965014 -0.19580949 0 0 Z M39.3515625 13.48828125 C40.0115625 14.14828125 40.6715625 14.80828125 41.3515625 15.48828125 C40.6915625 15.48828125 40.0315625 15.48828125 39.3515625 15.48828125 C39.3515625 14.82828125 39.3515625 14.16828125 39.3515625 13.48828125 Z " fill="#A283E9" transform="translate(620.6484375,168.51171875)"/>
<path d="M0 0 C0.33 0 0.66 0 1 0 C0.38934533 10.84988265 -1.69532082 21.50150407 -3.5625 32.1875 C-3.89558083 34.1125613 -4.22826648 36.03769101 -4.56054688 37.96289062 C-5.36841286 42.64287241 -6.18437526 47.32133797 -7 52 C-16.57 52 -26.14 52 -36 52 C-35 40 -35 40 -33 37 C-31.84058962 40.47823115 -32.29179116 42.45895578 -33 46 C-32.34 46.33 -31.68 46.66 -31 47 C-31.66 47 -32.32 47 -33 47 C-32.67 47.66 -32.34 48.32 -32 49 C-24.41 49.33 -16.82 49.66 -9 50 C-8.67 48.35 -8.34 46.7 -8 45 C-8.66 44.67 -9.32 44.34 -10 44 C-9.566875 43.071875 -9.566875 43.071875 -9.125 42.125 C-6.61065004 35.14069455 -5.7796277 27.91444805 -5.24609375 20.54296875 C-5 18 -5 18 -4.44921875 15.3125 C-3.81174559 12.03089904 -4.53143687 9.93712626 -6 7 C-5.34 7 -4.68 7 -4 7 C-4 6.34 -4 5.68 -4 5 C-2.68 4.67 -1.36 4.34 0 4 C0 2.68 0 1.36 0 0 Z " fill="#9874E6" transform="translate(462,149)"/>
<path d="M0 0 C0.33 0 0.66 0 1 0 C1.42683136 7.60392164 0.44886812 14.40687668 -1.15234375 21.83203125 C-2.08176076 26.23811754 -2.73817619 30.66858827 -3.375 35.125 C-5.29810719 48.46538922 -7.68278302 61.72297297 -10 75 C-1.09 75 7.82 75 17 75 C17 70.05 17 65.1 17 60 C17.33 60 17.66 60 18 60 C18.12375 58.865625 18.2475 57.73125 18.375 56.5625 C18.58125 55.386875 18.7875 54.21125 19 53 C19.99 52.505 19.99 52.505 21 52 C19.26898048 74.73101952 19.26898048 74.73101952 17 77 C14.85441173 77.08775605 12.70595579 77.10695219 10.55859375 77.09765625 C9.25341797 77.09443359 7.94824219 77.09121094 6.60351562 77.08789062 C5.2148431 77.07953401 3.82617123 77.07106905 2.4375 77.0625 C1.04492344 77.05748666 -0.34765481 77.05292347 -1.74023438 77.04882812 C-5.1601987 77.03699434 -8.58007844 77.0205088 -12 77 C-11.37270511 68.07003586 -9.99337204 59.30452675 -8.49609375 50.48828125 C-8.2505432 49.02432641 -8.00535615 47.56031055 -7.76051331 46.09623718 C-7.12133505 42.28007682 -6.47728781 38.46475449 -5.83215332 34.64959717 C-5.17221526 30.74151052 -4.51698166 26.83263543 -3.86132812 22.92382812 C-2.5787698 15.2817816 -1.29105635 7.64061597 0 0 Z " fill="#9069E4" transform="translate(216,124)"/>
<path d="M0 0 C3.5569783 2.84937338 6.43374722 6.15378569 9.19921875 9.76171875 C8.86921875 10.42171875 8.53921875 11.08171875 8.19921875 11.76171875 C6.53255208 10.09505208 4.86588542 8.42838542 3.19921875 6.76171875 C2.60109375 6.20484375 2.00296875 5.64796875 1.38671875 5.07421875 C0.19921875 3.76171875 0.19921875 3.76171875 0.19921875 1.76171875 C-2.77078125 0.77171875 -5.74078125 -0.21828125 -8.80078125 -1.23828125 C-8.80078125 -1.89828125 -8.80078125 -2.55828125 -8.80078125 -3.23828125 C-11.38402245 -3.4064923 -13.96735824 -3.57290642 -16.55078125 -3.73828125 C-17.28039062 -3.78597656 -18.01 -3.83367187 -18.76171875 -3.8828125 C-24.41546055 -4.24259607 -29.63648648 -4.20516948 -35.23828125 -3.36328125 C-36.35074219 -3.20085937 -37.46320312 -3.0384375 -38.609375 -2.87109375 C-41.56534392 -2.28496527 -44.02932944 -1.3850889 -46.80078125 -0.23828125 C-49.61328125 -0.11328125 -49.61328125 -0.11328125 -51.80078125 -0.23828125 C-52.13078125 0.75171875 -52.46078125 1.74171875 -52.80078125 2.76171875 C-54.54378538 3.79461009 -56.29082962 4.82314088 -58.078125 5.77734375 C-59.97804805 6.86301406 -61.38434694 8.09532544 -62.80078125 9.76171875 C-63.46078125 9.43171875 -64.12078125 9.10171875 -64.80078125 8.76171875 C-47.73920553 -7.84653008 -20.96348687 -13.75620543 0 0 Z " fill="#9F83E3" transform="translate(554.80078125,106.23828125)"/>
<path d="M0 0 C3.21928648 2.57363571 3.72250984 5.11214629 4.5625 9.0625 C5.38110217 13.5081952 5.38110217 13.5081952 8 17 C8.70626239 18.98636298 9.36893571 20.98848259 10 23 C10.66 24.65 11.32 26.3 12 28 C25.86 28.495 25.86 28.495 40 29 C40.495 27.515 40.495 27.515 41 26 C41.495 28.475 41.495 28.475 42 31 C31.44 31 20.88 31 10 31 C3.83995037 16.21588089 3.83995037 16.21588089 1.625 10.4375 C1.35300781 9.75365234 1.08101563 9.06980469 0.80078125 8.36523438 C-1.11585749 3.34757246 -1.11585749 3.34757246 0 0 Z " fill="#916DDF" transform="translate(267,170)"/>
<path d="M0 0 C3.9382619 -0.10897573 7.87344239 -0.18779266 11.8125 -0.25 C13.46282227 -0.30027344 13.46282227 -0.30027344 15.14648438 -0.3515625 C22.57583667 -0.43922447 29.42094345 0.26213229 36 4 C36.495 5.485 36.495 5.485 37 7 C36.236875 6.690625 35.47375 6.38125 34.6875 6.0625 C30.52155803 4.41549969 27.2699746 3.83046865 22.80078125 3.68359375 C21.59228516 3.64169922 20.38378906 3.59980469 19.13867188 3.55664062 C17.87603516 3.51732422 16.61339844 3.47800781 15.3125 3.4375 C14.03826172 3.39431641 12.76402344 3.35113281 11.45117188 3.30664062 C8.30089148 3.2004514 5.15053161 3.09840467 2 3 C1.91020874 4.19061035 1.91020874 4.19061035 1.81860352 5.40527344 C1.39891965 10.73724928 0.97455654 15.99558021 -0.0625 21.25 C-0.23910156 22.16265625 -0.41570312 23.0753125 -0.59765625 24.015625 C-0.73042969 24.67046875 -0.86320313 25.3253125 -1 26 C-1.33 26 -1.66 26 -2 26 C-2 22.04 -2 18.08 -2 14 C-1.34 14 -0.68 14 0 14 C0 9.38 0 4.76 0 0 Z " fill="#9066E8" transform="translate(249,90)"/>
<path d="M0 0 C1.13308594 0.06832031 2.26617188 0.13664063 3.43359375 0.20703125 C12.38802083 0.79600694 12.38802083 0.79600694 16 2 C15.67 3.98 15.34 5.96 15 8 C14.34 6.68 13.68 5.36 13 4 C12.24976563 4.01160156 11.49953125 4.02320313 10.7265625 4.03515625 C4.07662583 4.0937829 -2.40004873 3.81769308 -9 3 C-9.598125 3.99 -10.19625 4.98 -10.8125 6 C-11.534375 6.99 -12.25625 7.98 -13 9 C-13.99 9 -14.98 9 -16 9 C-16 9.66 -16 10.32 -16 11 C-18.64 11 -21.28 11 -24 11 C-22.05754356 9.70502904 -20.09984893 8.43251346 -18.125 7.1875 C-14.91744134 5.15244832 -14.91744134 5.15244832 -12.75 2.25 C-8.61272742 -1.13504121 -5.14939233 -0.42276303 0 0 Z " fill="#A07EE8" transform="translate(548,169)"/>
<path d="M0 0 C0.65468262 0.15670166 1.30936523 0.31340332 1.98388672 0.47485352 C6.50947494 1.69166653 9.71336108 3.51858224 13.4375 6.25 C11.4375 7.25 11.4375 7.25 8.3125 6.3125 C7.36375 5.961875 6.415 5.61125 5.4375 5.25 C5.4375 4.59 5.4375 3.93 5.4375 3.25 C-6.14703289 1.49564646 -16.9027806 1.18051427 -28.5625 2.25 C-30.30080078 2.39695312 -30.30080078 2.39695312 -32.07421875 2.546875 C-34.57242168 2.76438819 -37.06771392 2.99674958 -39.5625 3.25 C-31.0114154 -5.3010846 -10.60158293 -2.55405118 0 0 Z " fill="#AE91EB" transform="translate(911.5625,100.75)"/>
<path d="M0 0 C12.21 0 24.42 0 37 0 C38.57674474 3.94186186 39.46595892 6.89929993 40.125 11 C40.37636719 12.5159375 40.37636719 12.5159375 40.6328125 14.0625 C40.96864471 16.74915771 41.06956677 19.29683403 41 22 C35.13499343 16.89999429 36.58127233 9.55654032 36 2 C24.45 1.67 12.9 1.34 1 1 C0.67 2.32 0.34 3.64 0 5 C-1.28796166 7.02951535 -2.61558 9.03501678 -4 11 C-4.33 10.34 -4.66 9.68 -5 9 C-3.35 6.03 -1.7 3.06 0 0 Z " fill="#9E82DC" transform="translate(630,68)"/>
<path d="M0 0 C1.86168823 0.0314209 1.86168823 0.0314209 3.76098633 0.06347656 C4.42262283 0.06913635 5.08425934 0.07479614 5.76594543 0.08062744 C7.8757109 0.10298909 9.9837671 0.15317785 12.09301758 0.20410156 C13.52463364 0.22416717 14.95627638 0.24241784 16.38793945 0.25878906 C19.89435272 0.30285088 23.3997683 0.37187379 26.90551758 0.45410156 C25.54799132 3.22971288 24.10504171 5.70738433 22.28051758 8.20410156 C21.83450195 8.81769531 21.38848633 9.43128906 20.92895508 10.06347656 C20.42235352 10.75183594 20.42235352 10.75183594 19.90551758 11.45410156 C19.57551758 10.46410156 19.24551758 9.47410156 18.90551758 8.45410156 C19.89551758 6.47410156 20.88551758 4.49410156 21.90551758 2.45410156 C13.65551758 2.45410156 5.40551758 2.45410156 -3.09448242 2.45410156 C-3.75448242 4.43410156 -4.41448242 6.41410156 -5.09448242 8.45410156 C-6.08448242 8.78410156 -7.07448242 9.11410156 -8.09448242 9.45410156 C-4.94240661 0.72527624 -4.94240661 0.72527624 0 0 Z " fill="#A286E1" transform="translate(777.094482421875,100.5458984375)"/>
<path d="M0 0 C4.90348525 4.74530831 4.90348525 4.74530831 5.25 9.25 C4.8858552 14.71217201 3.16231657 18.18099618 -0.875 21.8125 C-5.20029484 24.84020639 -7.80138569 25 -13 25 C-13 24.34 -13 23.68 -13 23 C-9.63316085 20.56839395 -8.26649636 20 -4 20 C-3.01 18.02 -2.02 16.04 -1 14 C-0.34 14 0.32 14 1 14 C0.67 12.68 0.34 11.36 0 10 C0.99 9.34 1.98 8.68 3 8 C2.67 7.01 2.34 6.02 2 5 C1.34 4.67 0.68 4.34 0 4 C0 2.68 0 1.36 0 0 Z " fill="#9063EE" transform="translate(363,64)"/>
<path d="M0 0 C1 3 1 3 0 8 C9.24 7.67 18.48 7.34 28 7 C27.67 7.99 27.34 8.98 27 10 C16.77 10 6.54 10 -4 10 C-3.12686261 5.63431305 -2.34897511 3.57452735 0 0 Z " fill="#9E7EE1" transform="translate(567,191)"/>
<path d="M0 0 C0.99 0.33 1.98 0.66 3 1 C2.50727663 12.57899913 -1.06553771 21.45802668 -9 30 C-9.99 30.66 -10.98 31.32 -12 32 C-10.84826645 29.53199953 -9.95216435 27.95216435 -8 26 C-7.28591666 24.01643517 -6.61382258 22.01684563 -6 20 C-5.01 20 -4.02 20 -3 20 C-3.020625 19.030625 -3.04125 18.06125 -3.0625 17.0625 C-3 14 -3 14 -2 13 C-2.020625 11.948125 -2.04125 10.89625 -2.0625 9.8125 C-2.0011347 6.06921651 -1.35021745 3.45993222 0 0 Z " fill="#8F63EA" transform="translate(316,108)"/>
<path d="M0 0 C0.33 0 0.66 0 1 0 C0.85915204 1.79206547 0.71216299 3.58364917 0.5625 5.375 C0.48128906 6.37273437 0.40007813 7.37046875 0.31640625 8.3984375 C0 11 0 11 -1 13 C-10.57 13 -20.14 13 -30 13 C-30 11.68 -30 10.36 -30 9 C-29.34 9 -28.68 9 -28 9 C-28 9.66 -28 10.32 -28 11 C-24.06221489 10.8612922 -20.12485777 10.71281508 -16.1875 10.5625 C-15.06794922 10.52318359 -13.94839844 10.48386719 -12.79492188 10.44335938 C-11.72177734 10.40146484 -10.64863281 10.35957031 -9.54296875 10.31640625 C-8.0583313 10.26141968 -8.0583313 10.26141968 -6.54370117 10.20532227 C-3.8781649 10.09209669 -3.8781649 10.09209669 -1 9 C-0.67 6.03 -0.34 3.06 0 0 Z " fill="#A389DF" transform="translate(826,188)"/>
<path d="M0 0 C3.18090933 3.18090933 4.16244483 7.32519968 5.6875 11.5 C6.02072266 12.38042969 6.35394531 13.26085937 6.69726562 14.16796875 C7.00728516 15.00972656 7.31730469 15.85148438 7.63671875 16.71875 C7.92248779 17.49154297 8.20825684 18.26433594 8.50268555 19.06054688 C9 21 9 21 8 23 C5 17.375 5 17.375 5 14 C4.34 14 3.68 14 3 14 C2.34 15.32 1.68 16.64 1 18 C-1.34075925 14.48886112 -1.70663502 12.1804509 -2 8 C-1.0625 5.8125 -1.0625 5.8125 0 4 C0 2.68 0 1.36 0 0 Z " fill="#8D61EA" transform="translate(298,172)"/>
<path d="M0 0 C0.33 0 0.66 0 1 0 C-0.73101952 22.73101952 -0.73101952 22.73101952 -3 25 C-5.14558827 25.08775605 -7.29404421 25.10695219 -9.44140625 25.09765625 C-10.74658203 25.09443359 -12.05175781 25.09121094 -13.39648438 25.08789062 C-14.7851569 25.07953401 -16.17382877 25.07106905 -17.5625 25.0625 C-18.95507656 25.05748666 -20.34765481 25.05292347 -21.74023438 25.04882812 C-25.1601987 25.03699434 -28.58007844 25.0205088 -32 25 C-32 23.35 -32 21.7 -32 20 C-31.67 21.32 -31.34 22.64 -31 24 C-22.09 23.67 -13.18 23.34 -4 23 C-3.67 18.05 -3.34 13.1 -3 8 C-2.67 8 -2.34 8 -2 8 C-1.855625 6.865625 -1.71125 5.73125 -1.5625 4.5625 C-1 1 -1 1 0 0 Z " fill="#886CC6" transform="translate(236,176)"/>
<path d="M0 0 C0.66 0.33 1.32 0.66 2 1 C0.7934375 2.175625 0.7934375 2.175625 -0.4375 3.375 C-2.98690417 5.71982856 -2.98690417 5.71982856 -4 8 C-4.99 7.67 -5.98 7.34 -7 7 C-7 7.66 -7 8.32 -7 9 C-8.16108112 10.12693168 -9.32525055 11.25083763 -10.50390625 12.359375 C-12.92721282 15.0167869 -14.65273723 18.11669785 -16.47265625 21.20703125 C-16.97667969 21.79871094 -17.48070312 22.39039062 -18 23 C-19.32 23 -20.64 23 -22 23 C-17.79364699 13.74602339 -8.59515612 5.24094885 0 0 Z " fill="#8558E0" transform="translate(71,72)"/>
<path d="M0 0 C0.33 0 0.66 0 1 0 C0.43902934 8.34994061 -0.62281033 16.5086669 -2.0625 24.75 C-2.24876953 25.84054688 -2.43503906 26.93109375 -2.62695312 28.0546875 C-3.08011437 30.70393786 -3.53784204 33.35230703 -4 36 C-4.33 36 -4.66 36 -5 36 C-5.4188721 28.3672195 -4.74143571 21.03747552 -3.625 13.5 C-3.43587036 12.19144043 -3.43587036 12.19144043 -3.24291992 10.85644531 C-3.11377197 10.02725586 -2.98462402 9.19806641 -2.8515625 8.34375 C-2.73635254 7.60318359 -2.62114258 6.86261719 -2.50244141 6.09960938 C-1.96314183 3.84597654 -1.11013814 2.02676072 0 0 Z " fill="#9976E6" transform="translate(474,75)"/>
<path d="M0 0 C4.15798015 1.68088559 6.72972227 4.13211942 9 8 C9.42771206 11.04678839 9.51337221 13.96155287 9 17 C8.34 17.66 7.68 18.32 7 19 C6.93941406 18.32453125 6.87882813 17.6490625 6.81640625 16.953125 C6.69072266 15.61507812 6.69072266 15.61507812 6.5625 14.25 C6.48128906 13.36828125 6.40007813 12.4865625 6.31640625 11.578125 C6.03761535 9.30649548 5.61209423 7.20148177 5 5 C4.34 5 3.68 5 3 5 C3 4.34 3 3.68 3 3 C-3.81402575 1.94731126 -9.36801431 2.06166602 -16 4 C-11.26647668 -0.94868347 -6.6114672 -0.52700101 0 0 Z " fill="#AD90E8" transform="translate(838,61)"/>
<path d="M0 0 C0.66 0 1.32 0 2 0 C2.8931507 6.58183362 2.95494281 12.42150508 2 19 C0.68 19.33 -0.64 19.66 -2 20 C-1.938125 21.423125 -1.938125 21.423125 -1.875 22.875 C-2 26 -2 26 -4 28 C-2.9644231 18.60269048 -1.88284826 9.27402919 0 0 Z " fill="#9165E2" transform="translate(323,158)"/>
<path d="M0 0 C0.83203125 1.609375 0.83203125 1.609375 1 4 C-0.70298691 6.29442564 -2.33741373 8.21903799 -4.3125 10.25 C-4.82490234 10.80429688 -5.33730469 11.35859375 -5.86523438 11.9296875 C-7.19327636 13.3356459 -8.59238507 14.67371393 -10 16 C-10.66 16 -11.32 16 -12 16 C-12.66 20.62 -13.32 25.24 -14 30 C-14.66 30 -15.32 30 -16 30 C-16.09038099 24.84828377 -15.84681133 20.08086796 -15 15 C-13.68 15 -12.36 15 -11 15 C-11 14.34 -11 13.68 -11 13 C-10.34 13 -9.68 13 -9 13 C-9.33 12.01 -9.66 11.02 -10 10 C-5.25 7 -5.25 7 -3 7 C-2.87625 6.401875 -2.7525 5.80375 -2.625 5.1875 C-2 3 -2 3 0 0 Z " fill="#774FDA" transform="translate(139,146)"/>
<path d="M0 0 C0.66 0 1.32 0 2 0 C1.43902934 8.34994061 0.37718967 16.5086669 -1.0625 24.75 C-1.24876953 25.84054688 -1.43503906 26.93109375 -1.62695312 28.0546875 C-2.08011437 30.70393786 -2.53784204 33.35230703 -3 36 C-3.33 36 -3.66 36 -4 36 C-5.10765663 29.13252891 -4.700773 23.73281213 -3 17 C-2.34 17 -1.68 17 -1 17 C-1.08378906 16.40832031 -1.16757812 15.81664063 -1.25390625 15.20703125 C-1.98374455 9.54385554 -1.81555111 5.44665333 0 0 Z " fill="#A687E7" transform="translate(838,109)"/>
<path d="M0 0 C9.9 0 19.8 0 30 0 C30 0.33 30 0.66 30 1 C17.625 1.495 17.625 1.495 5 2 C3.90221471 6.39114116 3.95468496 8.14166214 6.125 12 C7.2047188 14.46792868 6.74483403 15.48225115 6 18 C4.9936345 15.56495491 3.99473587 13.12729136 3 10.6875 C2.71382812 9.99720703 2.42765625 9.30691406 2.1328125 8.59570312 C0.91089256 5.58454326 0 3.28113016 0 0 Z " fill="#9E83DF" transform="translate(710,101)"/>
<path d="M0 0 C-13.07792679 6.38066447 -25.63036093 7.79317587 -40 6 C-40 5.67 -40 5.34 -40 5 C-39.42894531 5.02320313 -38.85789062 5.04640625 -38.26953125 5.0703125 C-32.02940228 5.20920249 -26.15399386 4.54223273 -20.00390625 3.50390625 C-17.58480294 3.09810088 -15.18580683 2.77509112 -12.75 2.5 C-11.38875 2.2525 -11.38875 2.2525 -10 2 C-9.67 1.34 -9.34 0.68 -9 0 C-5.58777852 -1.01444422 -3.37896371 -0.95821359 0 0 Z " fill="#A990E7" transform="translate(911,196)"/>
<path d="M0 0 C0.33 0.66 0.66 1.32 1 2 C0.01505762 4.32389304 -1.02867083 6.51951132 -2.18359375 8.7578125 C-2.51794937 9.42086395 -2.85230499 10.08391541 -3.1967926 10.76705933 C-4.26960081 12.89023147 -5.35338434 15.00758286 -6.4375 17.125 C-7.16544169 18.56082899 -7.89266477 19.99702255 -8.61914062 21.43359375 C-10.40444012 24.96001824 -12.19960452 28.48126037 -14 32 C-14.33 32 -14.66 32 -15 32 C-15 30.35 -15 28.7 -15 27 C-14.34 27 -13.68 27 -13 27 C-13.33 25.02 -13.66 23.04 -14 21 C-12.68 21 -11.36 21 -10 21 C-9.8453125 19.3603125 -9.8453125 19.3603125 -9.6875 17.6875 C-8.94988221 13.7311864 -8.63084958 13.57823258 -6 11 C-5.01371583 8.96922316 -5.01371583 8.96922316 -4.3125 6.8125 C-4.06113281 6.09707031 -3.80976562 5.38164063 -3.55078125 4.64453125 C-3.36902344 4.10183594 -3.18726563 3.55914062 -3 3 C-2.34 3 -1.68 3 -1 3 C-0.67 2.01 -0.34 1.02 0 0 Z " fill="#9D7CE2" transform="translate(642,101)"/>
<path d="M0 0 C0.33 0 0.66 0 1 0 C0.55723624 6.931543 -0.34666574 13.77007517 -1.4375 20.625 C-1.55971924 21.43114746 -1.68193848 22.23729492 -1.80786133 23.06787109 C-2.13529845 25.05802498 -2.55957052 27.0317649 -3 29 C-3.66 29.33 -4.32 29.66 -5 30 C-5.41811131 19.5007605 -4.10622998 9.70563449 0 0 Z " fill="#8E69E0" transform="translate(350,169)"/>
<path d="M0 0 C4.62 0 9.24 0 14 0 C14.9765625 2.01822917 15.953125 4.03645833 16.9296875 6.0546875 C17.96557543 8.15135019 17.96557543 8.15135019 20 10 C22.36030696 10.45847689 24.7398174 10.82143131 27.125 11.125 C29.04699219 11.37636719 29.04699219 11.37636719 31.0078125 11.6328125 C32.48894531 11.81457031 32.48894531 11.81457031 34 12 C34 12.33 34 12.66 34 13 C31.77144426 13.0814222 29.54202345 13.13938079 27.3125 13.1875 C26.07113281 13.22230469 24.82976563 13.25710937 23.55078125 13.29296875 C19.7542292 12.97972188 17.98532629 12.30757653 15 10 C13 7 13 7 12 2 C8.04 1.67 4.08 1.34 0 1 C0 0.67 0 0.34 0 0 Z " fill="#AC90E8" transform="translate(854,169)"/>
<path d="M0 0 C1.32 0.66 2.64 1.32 4 2 C3.67 2.99 3.34 3.98 3 5 C1.28515625 5.84375 1.28515625 5.84375 -0.9375 6.5 C-1.74316406 6.74363281 -2.54882812 6.98726562 -3.37890625 7.23828125 C-4.24386719 7.48964844 -5.10882813 7.74101562 -6 8 C-6.89589844 8.28230469 -7.79179688 8.56460938 -8.71484375 8.85546875 C-15.57130282 11 -15.57130282 11 -19 11 C-19 10.34 -19 9.68 -19 9 C-18.21625 8.87625 -17.4325 8.7525 -16.625 8.625 C-13.85942178 8.20882007 -13.85942178 8.20882007 -12 6 C-11.21625 6.04125 -10.4325 6.0825 -9.625 6.125 C-6.11980162 5.95808579 -5.33143082 4.48685955 -3 2 C-2.01 2 -1.02 2 0 2 C0 1.34 0 0.68 0 0 Z " fill="#8258DA" transform="translate(112,128)"/>
<path d="M0 0 C0.33 0 0.66 0 1 0 C1 1.65 1 3.3 1 5 C9.58 5 18.16 5 27 5 C27.33 5.66 27.66 6.32 28 7 C18.76 7 9.52 7 0 7 C-1.33332095 4.3333581 -0.67102033 2.83319697 0 0 Z " fill="#8E69D7" transform="translate(317,194)"/>
<path d="M0 0 C4.4643584 3.7594597 6.45840123 7.22294646 7 13 C6.91940192 18.28723407 6.39279985 23.21440029 4 28 C2.58752977 23.76258932 3.02541689 19.57071939 3.21484375 15.15625 C3.32172838 9.98692041 2.23418209 6.65552079 0 2 C0 1.34 0 0.68 0 0 Z " fill="#AB90E9" transform="translate(924,151)"/>
<path d="M0 0 C0.66 0 1.32 0 2 0 C3.32008896 3.30022241 2.67461384 5.42645297 1.61328125 8.71875 C0.27202763 13.70787175 -0.2778085 18.8908793 -1 24 C-1.66 24 -2.32 24 -3 24 C-2.95875 25.11375 -2.9175 26.2275 -2.875 27.375 C-3 31 -3 31 -5 33 C-3.73201021 21.91627746 -2.0361826 10.96823696 0 0 Z " fill="#A68DE4" transform="translate(804,149)"/>
<path d="M0 0 C1.52303741 0.00848969 1.52303741 0.00848969 3.07684326 0.01715088 C6.31733501 0.03952747 9.5567179 0.08972745 12.796875 0.140625 C14.99477569 0.16068829 17.19269372 0.17893935 19.390625 0.1953125 C24.7764195 0.23939629 30.16156803 0.30632127 35.546875 0.390625 C35.546875 0.720625 35.546875 1.050625 35.546875 1.390625 C20.696875 1.720625 5.846875 2.050625 -9.453125 2.390625 C-10.443125 4.370625 -11.433125 6.350625 -12.453125 8.390625 C-13.113125 7.070625 -13.773125 5.750625 -14.453125 4.390625 C-10.7665026 -1.01766878 -5.92087966 -0.12402979 0 0 Z " fill="#997FD3" transform="translate(618.453125,169.609375)"/>
<path d="M0 0 C0.33 0 0.66 0 1 0 C1.71770287 3.89506508 2.42959185 7.79114446 3.13623047 11.68823242 C3.49533313 13.66185099 3.8589652 15.63464368 4.22265625 17.60742188 C4.44824219 18.85458984 4.67382812 20.10175781 4.90625 21.38671875 C5.11572266 22.53358154 5.32519531 23.68044434 5.54101562 24.86206055 C5.94698846 27.63757591 6.09164953 30.20239814 6 33 C5.01 32.67 4.02 32.34 3 32 C3.020625 30.80375 3.04125 29.6075 3.0625 28.375 C3.06882571 24.81995131 2.69888875 21.49444376 2 18 C1.01 18 0.02 18 -1 18 C-0.835 17.071875 -0.67 16.14375 -0.5 15.1875 C0.23700282 10.14266379 0.08276815 5.08564289 0 0 Z " fill="#9D7FE1" transform="translate(681,146)"/>
<path d="M0 0 C0.33 0 0.66 0 1 0 C2.15983887 8.70771334 1.97881027 15.62209611 -1 24 C-1.36106097 25.66088045 -1.70462173 27.32618981 -2 29 C-2.66 29 -3.32 29 -4 29 C-3.37514309 19.21775739 -1.68656475 9.64205883 0 0 Z " fill="#9975E3" transform="translate(444,84)"/>
<path d="M0 0 C1.84121215 1.09097798 3.67281256 2.19819251 5.5 3.3125 C6.5209375 3.92738281 7.541875 4.54226562 8.59375 5.17578125 C9.3878125 5.77777344 10.181875 6.37976563 11 7 C11 7.99 11 8.98 11 10 C8.36 9.67 5.72 9.34 3 9 C3 8.34 3 7.68 3 7 C2.01 6.67 1.02 6.34 0 6 C-1 3 -1 3 0 0 Z " fill="#9252F9" transform="translate(99,196)"/>
<path d="M0 0 C1.89213369 2.38573379 3.02391783 4.07175348 4 7 C3.236875 7.70125 2.47375 8.4025 1.6875 9.125 C-0.98502812 11.98398357 -2.32679096 14.50147201 -4 18 C-5.5625 19.875 -5.5625 19.875 -7 21 C-7.66 21 -8.32 21 -9 21 C-9 21.66 -9 22.32 -9 23 C-9.66 23 -10.32 23 -11 23 C-9.04767236 18.37309634 -5.61914238 14.71767372 -2.36914062 10.953125 C0.07279662 7.94222697 1.03068441 6.52584653 0.80078125 2.5859375 C0.53652344 1.73257813 0.27226563 0.87921875 0 0 Z M4 4 C4.66 4.66 5.32 5.32 6 6 C5.34 6 4.68 6 4 6 C4 5.34 4 4.68 4 4 Z " fill="#9B7DE3" transform="translate(728,145)"/>
<path d="M0 0 C0.66 0.33 1.32 0.66 2 1 C2.4140625 3.28515625 2.4140625 3.28515625 2.625 6.0625 C2.69976562 6.98160156 2.77453125 7.90070313 2.8515625 8.84765625 C2.90054688 9.55792969 2.94953125 10.26820312 3 11 C-2.38625899 14.59083933 -5.76476759 15.19866855 -12.109375 14.484375 C-12.73328125 14.32453125 -13.3571875 14.1646875 -14 14 C-14.33 13.34 -14.66 12.68 -15 12 C-13.64455078 11.94392578 -13.64455078 11.94392578 -12.26171875 11.88671875 C-11.08222656 11.82097656 -9.90273437 11.75523438 -8.6875 11.6875 C-6.92986328 11.60048828 -6.92986328 11.60048828 -5.13671875 11.51171875 C-2.0597421 11.22984389 -2.0597421 11.22984389 -0.0625 9.71875 C1.31854124 7.4847127 1.14862019 6.36962107 0.6875 3.8125 C0.460625 2.554375 0.23375 1.29625 0 0 Z " fill="#895CE5" transform="translate(157,104)"/>
<path d="M0 0 C2.33203125 1.52734375 2.33203125 1.52734375 4 3 C3.443125 2.9278125 2.88625 2.855625 2.3125 2.78125 C-2.8359445 2.15508783 -7.81463038 1.90572055 -13 2 C-13.433125 2.928125 -13.433125 2.928125 -13.875 3.875 C-15 6 -15 6 -17 8 C-17.99 8 -18.98 8 -20 8 C-18.8161828 4.31701316 -16.5733344 2.55302753 -13.203125 0.76171875 C-8.94241621 -0.71139865 -4.41976341 -0.7512921 0 0 Z " fill="#966FE6" transform="translate(359,61)"/>
<path d="M0 0 C2.64 0 5.28 0 8 0 C8 0.66 8 1.32 8 2 C7.21625 2.0825 6.4325 2.165 5.625 2.25 C2.85250896 2.72806339 2.85250896 2.72806339 1.6875 5.0625 C1.460625 5.701875 1.23375 6.34125 1 7 C-0.65 7 -2.3 7 -4 7 C-4.33 5.68 -4.66 4.36 -5 3 C-3.35 2.67 -1.7 2.34 0 2 C0 1.34 0 0.68 0 0 Z " fill="#9A4CFB" transform="translate(104,128)"/>
<path d="M0 0 C1 2 1 2 0.22265625 4.6015625 C-0.16019531 5.59929687 -0.54304687 6.59703125 -0.9375 7.625 C-1.31777344 8.62789062 -1.69804688 9.63078125 -2.08984375 10.6640625 C-2.39019531 11.43492187 -2.69054687 12.20578125 -3 13 C-3.66 13 -4.32 13 -5 13 C-5.33 15.31 -5.66 17.62 -6 20 C-7.32 20.33 -8.64 20.66 -10 21 C-8.51991304 15.99886406 -6.3681664 11.67084403 -3.875 7.125 C-3.50246094 6.43664062 -3.12992188 5.74828125 -2.74609375 5.0390625 C-1.83500474 3.35705202 -0.91809685 1.67819564 0 0 Z " fill="#9C7BE7" transform="translate(582,162)"/>
<path d="M0 0 C0.66 0 1.32 0 2 0 C2.84604751 2.94102229 3.13522521 5.56766268 3.125 8.625 C3.12757813 9.40101563 3.13015625 10.17703125 3.1328125 10.9765625 C3 13 3 13 2 15 C2.061875 16.11375 2.12375 17.2275 2.1875 18.375 C2 22 2 22 -0.01171875 24.2265625 C-0.66785156 24.81179687 -1.32398438 25.39703125 -2 26 C-1.855625 25.21238281 -1.71125 24.42476562 -1.5625 23.61328125 C-0.20755718 15.66240151 0.23737719 8.057637 0 0 Z " fill="#9474DF" transform="translate(434,134)"/>
<path d="M0 0 C0 3 0 3 -1.75 5.1875 C-4 7 -4 7 -8 7 C-8.99 8.485 -8.99 8.485 -10 10 C-11.32407669 10.68486725 -12.65909241 11.34870203 -14 12 C-15.68889872 13.3050581 -17.3603279 14.63360658 -19 16 C-15.54121728 8.05696631 -7.43182964 3.73311813 0 0 Z " fill="#895DDE" transform="translate(95,145)"/>
<path d="M0 0 C-2.35968744 2.09749995 -3.54616994 2.96905704 -6.75 3.1875 C-7.86375 3.0946875 -7.86375 3.0946875 -9 3 C-9.33 3.99 -9.66 4.98 -10 6 C-11.74300413 7.03289134 -13.49004837 8.06142213 -15.27734375 9.015625 C-17.1772668 10.10129531 -18.58356569 11.33360669 -20 13 C-20.66 12.67 -21.32 12.34 -22 12 C-7.2051756 -2.4017252 -7.2051756 -2.4017252 0 0 Z " fill="#9B7DE2" transform="translate(512,103)"/>
<path d="M0 0 C4.09607673 0.50156042 7.88308514 1.25204097 11.82421875 2.45703125 C16.79905346 3.69850706 21.92772749 4.28301712 27 5 C27 5.66 27 6.32 27 7 C20.6466187 6.69454898 14.59936735 5.56855069 8.4375 4.0625 C7.72271484 3.89266602 7.00792969 3.72283203 6.27148438 3.54785156 C4.4961365 3.09845058 2.7447762 2.55639674 1 2 C0.67 1.34 0.34 0.68 0 0 Z " fill="#A98EE8" transform="translate(865,156)"/>
<path d="M0 0 C6.2971 7.62002017 6.59273073 17.51630832 6 27 C5.75980879 29.36988658 5.42643536 31.6546055 5 34 C4.67 34 4.34 34 4 34 C4.01160156 32.78183594 4.02320313 31.56367188 4.03515625 30.30859375 C4.04454178 28.68489738 4.05364116 27.06119933 4.0625 25.4375 C4.07087891 24.63763672 4.07925781 23.83777344 4.08789062 23.01367188 C4.10742247 18.22836896 3.80437018 13.71854949 3 9 C2.34 9 1.68 9 1 9 C0.67 6.03 0.34 3.06 0 0 Z " fill="#9C75DD" transform="translate(564,118)"/>
<path d="M0 0 C3.18827414 0.4665767 6.16571945 1.0509906 9.25 2 C13.81931188 3.21848317 18.29652153 3.6403779 23 4 C23 3.34 23 2.68 23 2 C25.64 2.33 28.28 2.66 31 3 C27.15048941 5.5663404 23.90641178 5.3822621 19.4375 5.375 C18.63135254 5.37628906 17.82520508 5.37757813 16.99462891 5.37890625 C10.70176123 5.26755046 5.53924922 4.1175674 0 1 C0 0.67 0 0.34 0 0 Z " fill="#8558E2" transform="translate(115,192)"/>
<path d="M0 0 C1.13583456 3.71727674 0.66670026 5.47051709 -1 9 C-1.66 9 -2.32 9 -3 9 C-3.4021875 10.8253125 -3.4021875 10.8253125 -3.8125 12.6875 C-4.6957458 16.21421906 -5.79141722 19.05522296 -8 22 C-8.66 22 -9.32 22 -10 22 C-8.4719611 16.90117545 -6.28963144 12.34334341 -3.875 7.625 C-3.50246094 6.88894531 -3.12992188 6.15289062 -2.74609375 5.39453125 C-1.8343878 3.59449642 -0.91770068 1.79698598 0 0 Z " fill="#9C7AE1" transform="translate(607,112)"/>
<path d="M0 0 C0.99 0.33 1.98 0.66 3 1 C0.39228224 8.60584347 -4.64432092 12.51091599 -11 17 C-11.66 16.67 -12.32 16.34 -13 16 C-11.625 14.5 -11.625 14.5 -10 13 C-9.34 13 -8.68 13 -8 13 C-7.67 12.01 -7.34 11.02 -7 10 C-6.01 10 -5.02 10 -4 10 C-3.67 8.35 -3.34 6.7 -3 5 C-2.01 5 -1.02 5 0 5 C0 3.35 0 1.7 0 0 Z " fill="#AC90EB" transform="translate(924,178)"/>
<path d="M0 0 C3.96 0 7.92 0 12 0 C14.34733607 9.38934426 14.34733607 9.38934426 12.67578125 12.328125 C11 14 11 14 9 14 C9.33 10.04 9.66 6.08 10 2 C6.7 1.67 3.4 1.34 0 1 C0 0.67 0 0.34 0 0 Z " fill="#8057DF" transform="translate(152,140)"/>
<path d="M0 0 C2.23892818 2.23892818 2.51158329 3.2886621 3.1875 6.3125 C3.45626953 7.45138672 3.45626953 7.45138672 3.73046875 8.61328125 C4 11 4 11 3 16 C-0.63 16 -4.26 16 -8 16 C-8 15.67 -8 15.34 -8 15 C-4.7 15 -1.4 15 2 15 C1.690625 13.989375 1.38125 12.97875 1.0625 11.9375 C0.0310421 8.3200298 -0.625045 4.74954999 -1 1 C-0.67 0.67 -0.34 0.34 0 0 Z " fill="#AB90E0" transform="translate(931,115)"/>
<path d="M0 0 C4.39592601 6.59388901 4.28936772 14.29960342 4 22 C1.1511055 16.50570347 -0.25194884 12.47146768 -0.125 6.1875 C-0.10695313 5.02605469 -0.08890625 3.86460938 -0.0703125 2.66796875 C-0.04710937 1.78753906 -0.02390625 0.90710938 0 0 Z " fill="#8F68DE" transform="translate(316,87)"/>
<path d="M0 0 C4.05676492 -0.04954711 8.11341194 -0.085789 12.17041016 -0.10986328 C13.54967315 -0.11990253 14.92891496 -0.13353677 16.30810547 -0.15087891 C18.2938514 -0.17521754 20.2797545 -0.18543255 22.265625 -0.1953125 C24.05661621 -0.21102295 24.05661621 -0.21102295 25.88378906 -0.22705078 C28.8891953 -0.00807336 30.56576068 0.25722366 33 2 C33.495 3.485 33.495 3.485 34 5 C33.236875 4.690625 32.47375 4.38125 31.6875 4.0625 C27.60010653 2.44655374 24.40160654 1.83322559 20.01953125 1.68359375 C18.85615234 1.64169922 17.69277344 1.59980469 16.49414062 1.55664062 C14.67172852 1.49766602 14.67172852 1.49766602 12.8125 1.4375 C11.58595703 1.39431641 10.35941406 1.35113281 9.09570312 1.30664062 C6.06391619 1.2004691 3.03204685 1.09842048 0 1 C0 0.67 0 0.34 0 0 Z " fill="#876BCB" transform="translate(252,92)"/>
<path d="M0 0 C11.17847534 -1.0735426 11.17847534 -1.0735426 15.64453125 1.55859375 C17.57249065 3.28507271 19.33119655 5.02365271 21 7 C20.67 8.65 20.34 10.3 20 12 C19.34 11.01 18.68 10.02 18 9 C14.88752612 4.74628569 12.70887145 2.43506117 7.421875 1.5859375 C6.54015625 1.51632813 5.6584375 1.44671875 4.75 1.375 C3.85796875 1.30023438 2.9659375 1.22546875 2.046875 1.1484375 C1.03367187 1.07496094 1.03367187 1.07496094 0 1 C0 0.67 0 0.34 0 0 Z " fill="#9471DF" transform="translate(414,122)"/>
<path d="M0 0 C0.6875 1.75 0.6875 1.75 1 4 C-0.25 6.25 -0.25 6.25 -2 8 C-2.99 8 -3.98 8 -5 8 C-5 8.66 -5 9.32 -5 10 C-7.64 10 -10.28 10 -13 10 C-11.03355981 8.68903987 -9.05463452 7.39657522 -7.0625 6.125 C-4.37165343 4.25788197 -2.21968326 2.39042813 0 0 Z " fill="#9A78E3" transform="translate(537,170)"/>
<path d="M0 0 C2.60155612 4.52399116 2.84998756 8.89182235 2 14 C0.54607905 16.28473292 -0.79561538 17.34671154 -3 19 C-3.66 18.67 -4.32 18.34 -5 18 C-4.175 17.29875 -3.35 16.5975 -2.5 15.875 C0.30423396 13.21372773 0.30423396 13.21372773 0.3125 9.6875 C0.209375 8.800625 0.10625 7.91375 0 7 C-1.98 6.01 -3.96 5.02 -6 4 C-5.38125 3.896875 -4.7625 3.79375 -4.125 3.6875 C-1.63473516 3.12474627 -1.63473516 3.12474627 0 0 Z " fill="#A689E5" transform="translate(899,160)"/>
<path d="M0 0 C0.33 1.32 0.66 2.64 1 4 C1.66 4 2.32 4 3 4 C3.18175781 4.59167969 3.36351562 5.18335938 3.55078125 5.79296875 C4.94788825 10.18489998 6.28127213 14.21742209 9 18 C9.66 18.33 10.32 18.66 11 19 C10.67 19.99 10.34 20.98 10 22 C4.65516116 16.41221394 0.18828194 10.19947814 -0.1015625 2.1953125 C-0.06804687 1.47085938 -0.03453125 0.74640625 0 0 Z " fill="#9474DF" transform="translate(473,169)"/>
<path d="M0 0 C4.93045718 4.77141017 4.93045718 4.77141017 5.1875 9.3125 C5.01221283 12.75981429 4.48837378 14.93022908 3 18 C2.67 18 2.34 18 2 18 C1.34 15.36 0.68 12.72 0 10 C0.99 9.34 1.98 8.68 3 8 C2.67 7.01 2.34 6.02 2 5 C1.34 4.67 0.68 4.34 0 4 C0 2.68 0 1.36 0 0 Z " fill="#8B67E0" transform="translate(363,64)"/>
<path d="M0 0 C0.66 0 1.32 0 2 0 C1.03644647 11.52164009 1.03644647 11.52164009 0 17 C-0.66 17 -1.32 17 -2 17 C-2.22084624 10.90218999 -2.01167675 5.78357065 0 0 Z " fill="#9D74EF" transform="translate(467,112)"/>
<path d="M0 0 C-0.68707031 0.47050781 -1.37414063 0.94101563 -2.08203125 1.42578125 C-3.43361328 2.35970703 -3.43361328 2.35970703 -4.8125 3.3125 C-5.70582031 3.92738281 -6.59914063 4.54226562 -7.51953125 5.17578125 C-9.96608273 6.87331942 -9.96608273 6.87331942 -11.69921875 8.73046875 C-13 10 -13 10 -15 10 C-14.67 8.68 -14.34 7.36 -14 6 C-13.34 6 -12.68 6 -12 6 C-12 5.34 -12 4.68 -12 4 C-11.34 4 -10.68 4 -10 4 C-9.67 3.34 -9.34 2.68 -9 2 C-5.55054779 -0.51716783 -4.05628368 -1.28867008 0 0 Z " fill="#835AD8" transform="translate(54,139)"/>
<path d="M0 0 C-3.54143525 2.19629783 -6.39667247 2.23275752 -10.515625 2.1953125 C-12.39121094 2.18564453 -12.39121094 2.18564453 -14.3046875 2.17578125 C-15.60664063 2.15902344 -16.90859375 2.14226562 -18.25 2.125 C-19.56742187 2.11597656 -20.88484375 2.10695312 -22.2421875 2.09765625 C-25.49497462 2.07408533 -28.74739589 2.04118022 -32 2 C-32 1.67 -32 1.34 -32 1 C-31.26362305 0.97494385 -30.52724609 0.9498877 -29.76855469 0.92407227 C-26.42886622 0.80795727 -23.08944903 0.68530082 -19.75 0.5625 C-18.59113281 0.52318359 -17.43226563 0.48386719 -16.23828125 0.44335938 C-14.56572266 0.38051758 -14.56572266 0.38051758 -12.859375 0.31640625 C-11.31975098 0.26141968 -11.31975098 0.26141968 -9.74902344 0.20532227 C-7.06904928 0.0906319 -7.06904928 0.0906319 -4.82128906 -0.58227539 C-3 -1 -3 -1 0 0 Z " fill="#8F6DD9" transform="translate(277,129)"/>
<path d="M0 0 C0.50958519 2.03834076 1.01372981 4.06668764 1.4375 6.125 C1.90475673 8.22082328 1.90475673 8.22082328 4 10 C1.69 10.66 -0.62 11.32 -3 12 C-3 10.68 -3 9.36 -3 8 C-3.66 7.67 -4.32 7.34 -5 7 C-4.0409375 6.1028125 -4.0409375 6.1028125 -3.0625 5.1875 C-0.79689611 3.09189663 -0.79689611 3.09189663 0 0 Z " fill="#8454EA" transform="translate(61,106)"/>
<path d="M0 0 C0.66 0 1.32 0 2 0 C2.696553 1.95513161 3.38199565 3.91422476 4.0625 5.875 C4.44535156 6.96554688 4.82820312 8.05609375 5.22265625 9.1796875 C6 12 6 12 5 14 C4.34 13.67 3.68 13.34 3 13 C3 12.34 3 11.68 3 11 C2.34 10.67 1.68 10.34 1 10 C1 9.34 1 8.68 1 8 C0.34 7.34 -0.32 6.68 -1 6 C-0.625 2.875 -0.625 2.875 0 0 Z " fill="#9B78E9" transform="translate(739,104)"/>
<path d="M0 0 C0.99 0.33 1.98 0.66 3 1 C3.625 2.92578125 3.625 2.92578125 4 5.3125 C4.67786663 8.92012919 5.39643691 11.27809313 8 14 C5.10415417 12.70186222 3.01842387 11.46696251 1 9 C0.48828125 6.73828125 0.48828125 6.73828125 0.3125 4.3125 C0.24675781 3.50425781 0.18101562 2.69601563 0.11328125 1.86328125 C0.07589844 1.24839844 0.03851563 0.63351563 0 0 Z " fill="#9068E0" transform="translate(336,74)"/>
<path d="M0 0 C0.33 1.32 0.66 2.64 1 4 C-0.109375 5.74609375 -0.109375 5.74609375 -1.75 7.4375 C-3.7700805 9.6022052 -5.19482667 11.33914273 -6.6875 13.9375 C-7.120625 14.618125 -7.55375 15.29875 -8 16 C-8.99 16 -9.98 16 -11 16 C-7.37 10.72 -3.74 5.44 0 0 Z " fill="#997DDF" transform="translate(767,111)"/>
<path d="M0 0 C-2.90527612 2.90527612 -6.21099025 2.71264319 -10.125 3.125 C-10.87910156 3.21136719 -11.63320313 3.29773438 -12.41015625 3.38671875 C-14.27257127 3.59889261 -16.13618931 3.80045763 -18 4 C-17.67 3.01 -17.34 2.02 -17 1 C-10.97767819 -0.46619907 -6.09632423 -1.32528788 0 0 Z " fill="#A582F0" transform="translate(529,100)"/>
<path d="M0 0 C-0.33 2.64 -0.66 5.28 -1 8 C-2.32 8 -3.64 8 -5 8 C-6.75 6 -6.75 6 -8 4 C-7.67 3.34 -7.34 2.68 -7 2 C-6.34 2.33 -5.68 2.66 -5 3 C-4.54625 2.505 -4.0925 2.01 -3.625 1.5 C-2 0 -2 0 0 0 Z " fill="#825DDC" transform="translate(57,170)"/>
<path d="M0 0 C0.33 0.66 0.66 1.32 1 2 C-1.63905 8.37770417 -5.27736573 13.0120492 -10 18 C-10 17.01 -10 16.02 -10 15 C-9.54625 14.566875 -9.0925 14.13375 -8.625 13.6875 C-6.4243481 11.40220764 -5.86929801 9.00910851 -5 6 C-4.01 6 -3.02 6 -2 6 C-1.34 4.02 -0.68 2.04 0 0 Z " fill="#8B65DA" transform="translate(315,122)"/>
<path d="M0 0 C3.5624827 -0.02913821 7.12493454 -0.04684529 10.6875 -0.0625 C12.19860352 -0.07506836 12.19860352 -0.07506836 13.74023438 -0.08789062 C14.71669922 -0.09111328 15.69316406 -0.09433594 16.69921875 -0.09765625 C18.04246216 -0.10551147 18.04246216 -0.10551147 19.4128418 -0.11352539 C22.03641759 0.00159802 24.44293053 0.41765715 27 1 C27 1.33 27 1.66 27 2 C25.18818595 2.19401633 23.37551468 2.38004375 21.5625 2.5625 C20.04849609 2.71912109 20.04849609 2.71912109 18.50390625 2.87890625 C17.26447266 2.93884766 17.26447266 2.93884766 16 3 C15.67 2.67 15.34 2.34 15 2 C12.47403741 1.76346477 9.96892793 1.57826308 7.4375 1.4375 C6.72658203 1.39431641 6.01566406 1.35113281 5.28320312 1.30664062 C3.52238088 1.20028223 1.7612168 1.09961154 0 1 C0 0.67 0 0.34 0 0 Z " fill="#8C62E2" transform="translate(99,107)"/>
<path d="M0 0 C6.48208955 0.48615672 11.77458569 3.42686471 16 8.3125 C16.33 8.869375 16.66 9.42625 17 10 C16.67 10.66 16.34 11.32 16 12 C15.01 11.34 14.02 10.68 13 10 C13 9.34 13 8.68 13 8 C12.46375 7.7525 11.9275 7.505 11.375 7.25 C8.43351717 5.70185114 5.74640157 3.86989043 3 2 C2.01 1.34 1.02 0.68 0 0 Z " fill="#9977E3" transform="translate(420,100)"/>
<path d="M0 0 C1.109375 3.7578125 1.109375 3.7578125 0.125 5.9375 C-0.24625 6.618125 -0.6175 7.29875 -1 8 C-1.103125 8.845625 -1.20625 9.69125 -1.3125 10.5625 C-2 13 -2 13 -4.5625 14.8125 C-5.366875 15.204375 -6.17125 15.59625 -7 16 C-5.35433477 10.31497465 -2.70967216 5.23318364 0 0 Z " fill="#9979E4" transform="translate(624,79)"/>
<path d="M0 0 C0.33 0 0.66 0 1 0 C0.48758893 6.02900687 -0.069785 12.02004643 -1 18 C-1.66 18 -2.32 18 -3 18 C-3 14.7 -3 11.4 -3 8 C-2.67 8 -2.34 8 -2 8 C-1.855625 6.865625 -1.71125 5.73125 -1.5625 4.5625 C-1 1 -1 1 0 0 Z " fill="#845BDA" transform="translate(236,176)"/>
<path d="M0 0 C1.2065625 0.0309375 1.2065625 0.0309375 2.4375 0.0625 C1.88644091 4.0117568 1.04814629 7.41170174 -0.5625 11.0625 C-3.59583922 8.02916078 -3.2271334 5.2881192 -3.5625 1.0625 C-2.5625 0.0625 -2.5625 0.0625 0 0 Z " fill="#A586EB" transform="translate(851.5625,132.9375)"/>
<path d="M0 0 C0 3 0 3 -1.75 4.9375 C-5.09604819 9.49184337 -6.38917023 14.62771135 -8 20 C-8.33 20 -8.66 20 -9 20 C-8.73212864 11.56205221 -5.98351498 5.98351498 0 0 Z " fill="#A88CE0" transform="translate(858,112)"/>
<path d="M0 0 C0.66 0 1.32 0 2 0 C2 0.66 2 1.32 2 2 C2.66 2.33 3.32 2.66 4 3 C3.67 4.32 3.34 5.64 3 7 C0.69 6.67 -1.62 6.34 -4 6 C-2.7260411 3.96166576 -1.38938077 1.96147874 0 0 Z " fill="#A083ED" transform="translate(696,194)"/>
<path d="M0 0 C0.33 0.66 0.66 1.32 1 2 C-0.21484375 4.8203125 -0.21484375 4.8203125 -1.9375 8.125 C-2.50339844 9.22070312 -3.06929687 10.31640625 -3.65234375 11.4453125 C-4.09707031 12.28835937 -4.54179688 13.13140625 -5 14 C-5.87065373 10.85124477 -6.04278771 9.12836314 -5 6 C-4.71125 5.113125 -4.4225 4.22625 -4.125 3.3125 C-3.75375 2.549375 -3.3825 1.78625 -3 1 C-2.01 0.67 -1.02 0.34 0 0 Z " fill="#9A75E5" transform="translate(601,184)"/>
<path d="M0 0 C0.66 0 1.32 0 2 0 C0.60176807 6.05900501 -2.93122252 10.44181768 -7 15 C-7.99 15.495 -7.99 15.495 -9 16 C-7.50079488 12.88626628 -5.91847864 9.87771795 -4 7 C-3.34 7 -2.68 7 -2 7 C-2.33 5.68 -2.66 4.36 -3 3 C-2.01 2.67 -1.02 2.34 0 2 C0 1.34 0 0.68 0 0 Z " fill="#7A53DA" transform="translate(173,165)"/>
<path d="M0 0 C0.66 0 1.32 0 2 0 C1.85764543 1.72945653 1.71095618 3.45855654 1.5625 5.1875 C1.48128906 6.15042969 1.40007812 7.11335937 1.31640625 8.10546875 C1.02333849 10.78649602 0.57296246 13.3662986 0 16 C-0.66 16 -1.32 16 -2 16 C-1.85833643 14.08302063 -1.71150416 12.16642277 -1.5625 10.25 C-1.48128906 9.18265625 -1.40007812 8.1153125 -1.31640625 7.015625 C-1.05909227 4.56320038 -0.68187782 2.36078709 0 0 Z " fill="#9A78EA" transform="translate(464,131)"/>
<path d="M0 0 C2.8503026 3.20945602 3.43451699 5.49988548 3.6875 9.75 C3.75324219 10.73484375 3.81898438 11.7196875 3.88671875 12.734375 C3.92410156 13.48203125 3.96148438 14.2296875 4 15 C0.91145855 12.0439429 0.06147783 10.28785336 -0.0546875 5.96484375 C-0.06170109 3.97649131 -0.03313481 1.98808871 0 0 Z " fill="#9E7DEA" transform="translate(667,75)"/>
<path d="M0 0 C0.33 0 0.66 0 1 0 C1.66 2.64 2.32 5.28 3 8 C2.01 8 1.02 8 0 8 C0 8.66 0 9.32 0 10 C-1.32 10 -2.64 10 -4 10 C-2.8905928 6.51329166 -1.73662334 3.22515763 0 0 Z " fill="#9D74EE" transform="translate(588,150)"/>
<path d="M0 0 C0.6875 1.8125 0.6875 1.8125 1 4 C-0.52301613 5.9581636 -1.78226023 6.89113011 -4 8 C-6.69565202 7.83219837 -9.32405554 7.38844355 -12 7 C-9 5 -9 5 -5.4375 3.5 C-2.00994231 2.25346749 -2.00994231 2.25346749 0 0 Z " fill="#8456E4" transform="translate(127,132)"/>
<path d="M0 0 C0.99 0.33 1.98 0.66 3 1 C1.22054913 5.04420651 -1.39529673 8.46078487 -4 12 C-4.33 10.68 -4.66 9.36 -5 8 C-4.01 7.67 -3.02 7.34 -2 7 C-2 5.02 -2 3.04 -2 1 C-1.34 0.67 -0.68 0.34 0 0 Z " fill="#A07FE9" transform="translate(789,116)"/>
<path d="M0 0 C2.03819846 2.03819846 2.67841059 3.29417798 3.6875 5.9375 C3.95949219 6.62714844 4.23148437 7.31679687 4.51171875 8.02734375 C5 10 5 10 4 13 C3.67 11.35 3.34 9.7 3 8 C1.35 7.67 -0.3 7.34 -2 7 C-1.34 4.69 -0.68 2.38 0 0 Z " fill="#8D62E4" transform="translate(293,159)"/>
<path d="M0 0 C6.68825715 1.04161382 12.12749662 2.58327076 18 6 C18.33 6.66 18.66 7.32 19 8 C16.36 7.34 13.72 6.68 11 6 C11 5.34 11 4.68 11 4 C10.28972656 3.87882812 9.57945312 3.75765625 8.84765625 3.6328125 C7.92855469 3.46523437 7.00945313 3.29765625 6.0625 3.125 C4.68771484 2.88136719 4.68771484 2.88136719 3.28515625 2.6328125 C2.53105469 2.42398438 1.77695312 2.21515625 1 2 C0.67 1.34 0.34 0.68 0 0 Z " fill="#AC92E3" transform="translate(906,100)"/>
<path d="M0 0 C0.99 0.33 1.98 0.66 3 1 C3 1.66 3 2.32 3 3 C-2.23420787 6.27137992 -5.16605611 6.10643764 -11 5 C-11 4.67 -11 4.34 -11 4 C-9.1128125 3.566875 -9.1128125 3.566875 -7.1875 3.125 C-4.1460601 2.42696461 -2.69330122 1.79553415 0 0 Z " fill="#9671E8" transform="translate(421,174)"/>
<path d="M0 0 C0.33 0 0.66 0 1 0 C1.02709444 2.08326131 1.04643873 4.16662441 1.0625 6.25 C1.07410156 7.41015625 1.08570313 8.5703125 1.09765625 9.765625 C1.01782092 12.40977128 0.78643778 14.49826091 0 17 C-0.66 17 -1.32 17 -2 17 C-1.85786703 15.10388566 -1.71113093 13.20811606 -1.5625 11.3125 C-1.48128906 10.25675781 -1.40007812 9.20101562 -1.31640625 8.11328125 C-1.03548319 5.34913703 -0.59843148 2.71054259 0 0 Z " fill="#956CE2" transform="translate(326,140)"/>
<path d="M0 0 C0.66 0.33 1.32 0.66 2 1 C-2.049191 5.83290538 -5.96719209 7.3833652 -12 9 C-8.33494586 5.00175912 -4.88887148 2.39831431 0 0 Z " fill="#9571DF" transform="translate(396,103)"/>
<path d="M0 0 C1.65 0.33 3.3 0.66 5 1 C0.57744491 4.89184848 -4.19294072 6 -10 6 C-10 5.34 -10 4.68 -10 4 C-9.04287109 3.81824219 -9.04287109 3.81824219 -8.06640625 3.6328125 C-7.24011719 3.46523437 -6.41382813 3.29765625 -5.5625 3.125 C-4.73878906 2.96257812 -3.91507813 2.80015625 -3.06640625 2.6328125 C-2.38449219 2.42398438 -1.70257812 2.21515625 -1 2 C-0.67 1.34 -0.34 0.68 0 0 Z " fill="#9979E2" transform="translate(538,195)"/>
<path d="M0 0 C0 0.66 0 1.32 0 2 C-4.97361654 3.75734451 -9.7415998 5.32584613 -15 6 C-10.50332388 2.22279206 -5.9028782 0 0 0 Z " fill="#8C60E8" transform="translate(98,108)"/>
<path d="M0 0 C1.32 0.66 2.64 1.32 4 2 C3.67 2.99 3.34 3.98 3 5 C0.36 5 -2.28 5 -5 5 C-5 4.34 -5 3.68 -5 3 C-3.35 2.67 -1.7 2.34 0 2 C0 1.34 0 0.68 0 0 Z " fill="#8951EB" transform="translate(112,128)"/>
<path d="M0 0 C0.82973374 2.38213881 1.10314333 3.65893095 0.36328125 6.10546875 C0.01652344 6.79253906 -0.33023438 7.47960937 -0.6875 8.1875 C-1.18830078 9.22970703 -1.18830078 9.22970703 -1.69921875 10.29296875 C-3.30835927 12.40466367 -4.42201159 12.63636795 -7 13 C-6.57847656 12.22914063 -6.15695313 11.45828125 -5.72265625 10.6640625 C-5.17480469 9.66117188 -4.62695312 8.65828125 -4.0625 7.625 C-3.51722656 6.62726563 -2.97195312 5.62953125 -2.41015625 4.6015625 C-1.5850241 3.07929654 -0.77435609 1.54871217 0 0 Z " fill="#8458DF" transform="translate(160,155)"/>
<path d="M0 0 C0.33 0 0.66 0 1 0 C1.45262267 3.09292159 1.48338914 5.22278608 -0.1953125 7.921875 C-2.91606282 11.23052614 -4.64831935 13.2715665 -9 14 C-8.60167969 13.57589844 -8.20335937 13.15179688 -7.79296875 12.71484375 C-4.14137539 8.67232555 -1.87842746 5.11349698 0 0 Z " fill="#956BE4" transform="translate(288,113)"/>
<path d="M0 0 C0.66 0.33 1.32 0.66 2 1 C0.6875 2.5 0.6875 2.5 -1 4 C-1.99 4 -2.98 4 -4 4 C-4 4.66 -4 5.32 -4 6 C-4.99 6.66 -5.98 7.32 -7 8 C-7.99 7.67 -8.98 7.34 -10 7 C-8.70982586 6.01886757 -7.41780894 5.04015801 -6.125 4.0625 C-5.04605469 3.24458984 -5.04605469 3.24458984 -3.9453125 2.41015625 C-2 1 -2 1 0 0 Z " fill="#B193E4" transform="translate(869,104)"/>
<path d="M0 0 C3.82669043 3.42388092 5.72278474 6.00724943 7 11 C6.01 11 5.02 11 4 11 C4 9.35 4 7.7 4 6 C3.38125 5.71125 2.7625 5.4225 2.125 5.125 C0 4 0 4 -2 2 C-1.34 2 -0.68 2 0 2 C0 1.34 0 0.68 0 0 Z " fill="#7F56E7" transform="translate(167,90)"/>
<path d="M0 0 C2.04371546 1.677033 2.92353251 2.53872837 3.36328125 5.19140625 C3.34652344 5.97386719 3.32976563 6.75632812 3.3125 7.5625 C3.30863281 8.34753906 3.30476562 9.13257812 3.30078125 9.94140625 C3 12 3 12 1 14 C0.22887459 9.27685687 -0.09764874 4.78478822 0 0 Z " fill="#A88BE1" transform="translate(844,66)"/>
<path d="M0 0 C1.32 0.33 2.64 0.66 4 1 C4.66 5.95 5.32 10.9 6 16 C5.34 16 4.68 16 4 16 C3.81824219 14.77023438 3.81824219 14.77023438 3.6328125 13.515625 C3.46523438 12.43796875 3.29765625 11.3603125 3.125 10.25 C2.96257813 9.18265625 2.80015625 8.1153125 2.6328125 7.015625 C2.06776118 4.32291129 1.36577086 2.36427561 0 0 Z " fill="#9E74E0" transform="translate(538,124)"/>
<path d="M0 0 C1.60226148 4.00565371 0.47694566 7.08609399 -1 11 C-1.99 11.33 -2.98 11.66 -4 12 C-3.33501617 7.61110675 -1.81242323 4.0188515 0 0 Z " fill="#895EE3" transform="translate(45,100)"/>
<path d="M0 0 C0.66 0 1.32 0 2 0 C1.85904936 1.6254308 1.71207913 3.25034051 1.5625 4.875 C1.48128906 5.77992187 1.40007812 6.68484375 1.31640625 7.6171875 C1 10 1 10 0 12 C-0.66 11.67 -1.32 11.34 -2 11 C-2.28571429 3.57142857 -2.28571429 3.57142857 0 0 Z " fill="#8D63E1" transform="translate(245,118)"/>
<path d="M0 0 C0 3.94720688 -1.52509109 5.01555103 -4 8 C-4.350625 8.7425 -4.70125 9.485 -5.0625 10.25 C-6 12 -6 12 -9 13 C-7.50923566 9.7173068 -5.61379679 7.06922559 -3.375 4.25 C-2.74335937 3.45078125 -2.11171875 2.6515625 -1.4609375 1.828125 C-0.97882812 1.22484375 -0.49671875 0.6215625 0 0 Z " fill="#9B7BDC" transform="translate(713,172)"/>
<path d="M0 0 C0.33 0 0.66 0 1 0 C1.309375 0.94875 1.61875 1.8975 1.9375 2.875 C2.87394742 5.86080408 2.87394742 5.86080408 4 8 C3.01 9.485 3.01 9.485 2 11 C-0.125 8.875 -0.125 8.875 -2 6 C-1.25 2.6875 -1.25 2.6875 0 0 Z " fill="#A57FF8" transform="translate(674,116)"/>
<path d="M0 0 C0.99 0.33 1.98 0.66 3 1 C3 1.66 3 2.32 3 3 C4.65 2.67 6.3 2.34 8 2 C8.66 3.65 9.32 5.3 10 7 C6.12697862 5.85569823 2.99736561 4.76679902 0 2 C0 1.34 0 0.68 0 0 Z " fill="#8459E2" transform="translate(71,192)"/>
<path d="M0 0 C3 1 3 1 4 3 C4.99 3.33 5.98 3.66 7 4 C7.33 5.98 7.66 7.96 8 10 C4.71211176 6.88983545 2.16264012 3.98381075 0 0 Z " fill="#926FE3" transform="translate(368,185)"/>
<path d="M0 0 C2.7972908 2.06756277 3.02692273 3.14440371 3.6875 6.6875 C3.790625 7.780625 3.89375 8.87375 4 10 C0.77686187 7.19275066 -0.64998321 5.31687378 -1 1 C-0.67 0.67 -0.34 0.34 0 0 Z " fill="#906BEB" transform="translate(267,170)"/>
<path d="M0 0 C1.65 0.33 3.3 0.66 5 1 C2.03 4.96 2.03 4.96 -1 9 C-1.33 7.68 -1.66 6.36 -2 5 C-1.34 5 -0.68 5 0 5 C0 3.35 0 1.7 0 0 Z " fill="#9470E8" transform="translate(401,127)"/>
<path d="M0 0 C-3.28491373 2.18994248 -4.83095639 2.35277339 -8.6875 2.625 C-10.17830078 2.73714844 -10.17830078 2.73714844 -11.69921875 2.8515625 C-12.83810547 2.92503906 -12.83810547 2.92503906 -14 3 C-10.12243665 -0.87756335 -5.14086064 -1.55783656 0 0 Z " fill="#AE90EB" transform="translate(886,101)"/>
<path d="M0 0 C1.32 0.33 2.64 0.66 4 1 C2.50260417 2.23697917 1.00520833 3.47395833 -0.4921875 4.7109375 C-1.71051161 5.75250992 -2.86660097 6.86660097 -4 8 C-4 6.68 -4 5.36 -4 4 C-3.34 4 -2.68 4 -2 4 C-1.34 2.68 -0.68 1.36 0 0 Z " fill="#8055DF" transform="translate(69,149)"/>
<path d="M0 0 C0 3.56172735 -0.74670717 4.36534757 -2.875 7.125 C-3.40867187 7.82882813 -3.94234375 8.53265625 -4.4921875 9.2578125 C-6 11 -6 11 -8 12 C-6.49087042 7.01987239 -3.44338151 3.75740058 0 0 Z " fill="#9579D7" transform="translate(489,116)"/>
<path d="M0 0 C4.97306516 0.49730652 8.63799813 1.55302334 13 4 C9.64983146 5.11672285 9.07440438 4.92467164 5.9375 3.6875 C5.24527344 3.42324219 4.55304688 3.15898438 3.83984375 2.88671875 C2 2 2 2 0 0 Z " fill="#805BD6" transform="translate(128,64)"/>
<path d="M0 0 C3.3 1.98 6.6 3.96 10 6 C6 7 6 7 4 6 C4 5.34 4 4.68 4 4 C2.68 3.34 1.36 2.68 0 2 C0 1.34 0 0.68 0 0 Z " fill="#7D57D3" transform="translate(101,198)"/>
<path d="M0 0 C4.87664009 -0.34833144 7.77050005 0.58314288 12 3 C8.69564916 4.12377697 6.9493138 3.89554742 3.75 2.5625 C3.04359375 2.27503906 2.3371875 1.98757812 1.609375 1.69140625 C1.07828125 1.46324219 0.5471875 1.23507813 0 1 C0 0.67 0 0.34 0 0 Z " fill="#9676E3" transform="translate(492,197)"/>
<path d="M0 0 C2.37948772 0.17625835 3.70225849 0.69719773 5.37890625 2.40234375 C6.62115486 3.90649092 7.81376056 5.45129851 9 7 C8.67 7.66 8.34 8.32 8 9 C6.33333333 7.33333333 4.66666667 5.66666667 3 4 C2.401875 3.4225 1.80375 2.845 1.1875 2.25 C0 1 0 1 0 0 Z " fill="#9F7DE7" transform="translate(555,109)"/>
<path d="M0 0 C-2.97 2.475 -2.97 2.475 -6 5 C-6 4.01 -6 3.02 -6 2 C-6.66 1.67 -7.32 1.34 -8 1 C-3.375 -1.125 -3.375 -1.125 0 0 Z " fill="#8657E5" transform="translate(74,92)"/>
<path d="M0 0 C0.33 0.99 0.66 1.98 1 3 C-3.26826873 3 -3.93882432 2.62386487 -7 0 C-4.3333581 -1.33332095 -2.83319697 -0.67102033 0 0 Z " fill="#8956F0" transform="translate(140,83)"/>
<path d="M0 0 C0.99 0.495 0.99 0.495 2 1 C2 1.99 2 2.98 2 4 C2.99 4.33 3.98 4.66 5 5 C5.33 6.65 5.66 8.3 6 10 C5.34 10 4.68 10 4 10 C0 3.375 0 3.375 0 0 Z " fill="#A891DE" transform="translate(841,180)"/>
<path d="M0 0 C2.97 0.495 2.97 0.495 6 1 C4.515 3.475 4.515 3.475 3 6 C1.5 4.6875 1.5 4.6875 0 3 C0 2.01 0 1.02 0 0 Z " fill="#A580F2" transform="translate(770,138)"/>
<path d="M0 0 C1 2 1 2 0.29296875 4.12890625 C-0.07183594 4.93199219 -0.43664062 5.73507813 -0.8125 6.5625 C-1.16957031 7.36816406 -1.52664063 8.17382812 -1.89453125 9.00390625 C-3 11 -3 11 -5 12 C-4.54738642 10.56068883 -4.08767021 9.12361001 -3.625 7.6875 C-3.24214844 6.48673828 -3.24214844 6.48673828 -2.8515625 5.26171875 C-2 3 -2 3 0 0 Z " fill="#9170DF" transform="translate(374,124)"/>
<path d="M0 0 C2.97 0.99 5.94 1.98 9 3 C5.66203244 3.83449189 2.39305036 4.46019653 -1 5 C-0.67 3.35 -0.34 1.7 0 0 Z " fill="#8959E9" transform="translate(133,112)"/>
<path d="M0 0 C0.66 0 1.32 0 2 0 C3.60080151 4.00200378 2.29279692 7.04556236 1 11 C0.67 11 0.34 11 0 11 C-0.84098656 6.98195309 -1.05404945 3.98196457 0 0 Z " fill="#AF8FF2" transform="translate(804,149)"/>
<path d="M0 0 C0 0.99 0 1.98 0 3 C-5.625 6 -5.625 6 -9 6 C-7.8803014 4.99406757 -6.7540588 3.9954151 -5.625 3 C-4.68527344 2.1646875 -4.68527344 2.1646875 -3.7265625 1.3125 C-2 0 -2 0 0 0 Z " fill="#895DDB" transform="translate(58,144)"/>
<path d="M0 0 C-1.12073862 0.83905565 -2.24674547 1.67107831 -3.375 2.5 C-4.00148438 2.9640625 -4.62796875 3.428125 -5.2734375 3.90625 C-7 5 -7 5 -9 5 C-9 4.34 -9 3.68 -9 3 C-8.34 3 -7.68 3 -7 3 C-7 2.34 -7 1.68 -7 1 C-3.375 -1.125 -3.375 -1.125 0 0 Z " fill="#8E69DE" transform="translate(304,141)"/>
<path d="M0 0 C6.75 1.625 6.75 1.625 9 5 C8.01 5.33 7.02 5.66 6 6 C6 5.34 6 4.68 6 4 C4.02 3.34 2.04 2.68 0 2 C0 1.34 0 0.68 0 0 Z " fill="#926FE7" transform="translate(297,71)"/>
<path d="M0 0 C0.66 0 1.32 0 2 0 C0.68775452 3.93673644 -0.91910327 6.22719294 -4 9 C-3.67 7.35 -3.34 5.7 -3 4 C-2.34 4 -1.68 4 -1 4 C-0.67 2.68 -0.34 1.36 0 0 Z " fill="#9A7BDF" transform="translate(728,188)"/>
<path d="M0 0 C3.86107457 2.57404971 3.94319692 4.61020259 5 9 C4.01 9.495 4.01 9.495 3 10 C0 3.375 0 3.375 0 0 Z " fill="#9978DB" transform="translate(753,184)"/>
<path d="M0 0 C0.66 0 1.32 0 2 0 C1.67 3.63 1.34 7.26 1 11 C0.67 11 0.34 11 0 11 C-0.19491452 9.54263913 -0.38069358 8.08405407 -0.5625 6.625 C-0.66691406 5.81289062 -0.77132813 5.00078125 -0.87890625 4.1640625 C-1 2 -1 2 0 0 Z " fill="#9977E4" transform="translate(467,112)"/>
<path d="M0 0 C0.66 0.33 1.32 0.66 2 1 C0.71389765 3.5722047 -0.33393981 4.00974907 -3 5 C-5.25 4.625 -5.25 4.625 -7 4 C-1.7265625 0.77734375 -1.7265625 0.77734375 0 0 Z " fill="#875ADB" transform="translate(80,67)"/>
<path d="M0 0 C0.99 0.33 1.98 0.66 3 1 C0.36 2.98 -2.28 4.96 -5 7 C-4.67 5.68 -4.34 4.36 -4 3 C-3.01 3 -2.02 3 -1 3 C-0.67 2.01 -0.34 1.02 0 0 Z " fill="#7756CD" transform="translate(161,182)"/>
<path d="M0 0 C3.93846154 3.32307692 3.93846154 3.32307692 4.25 6.75 C4.1675 7.4925 4.085 8.235 4 9 C1.47740939 7.02579865 1.0070192 6.03254358 0.3125 2.8125 C0.209375 1.884375 0.10625 0.95625 0 0 Z " fill="#B094EE" transform="translate(924,151)"/>
<path d="M0 0 C2 2 2 2 2.125 5.625 C2.08375 6.73875 2.0425 7.8525 2 9 C-0.57781906 6.42218094 -0.62129616 4.5598161 -1 1 C-0.67 0.67 -0.34 0.34 0 0 Z " fill="#B094ED" transform="translate(931,115)"/>
<path d="M0 0 C3.68754757 0.49831724 5.60490662 1.10067643 8 4 C7.01 4.495 7.01 4.495 6 5 C3.96855359 4.06553465 1.96466413 3.06775224 0 2 C0 1.34 0 0.68 0 0 Z " fill="#926EE4" transform="translate(278,92)"/>
<path d="M0 0 C0.99 0 1.98 0 3 0 C3.33 1.65 3.66 3.3 4 5 C3.01 5.66 2.02 6.32 1 7 C0.67 4.69 0.34 2.38 0 0 Z " fill="#A785EC" transform="translate(841,77)"/>
</svg>
