<?xml version="1.0" encoding="UTF-8"?>
<svg version="1.1" xmlns="http://www.w3.org/2000/svg" width="164" height="165">
<path d="M0 0 C14.3107965 11.07735832 22.31595182 24.35577481 27.171875 41.5078125 C27.35000732 42.12035889 27.52813965 42.73290527 27.71166992 43.36401367 C31.52872126 61.14519551 28.01609618 80.41788569 18.890625 95.921875 C11.38202989 107.21889764 1.65537216 117.91466751 -11.67578125 122.0859375 C-21.84380834 124.07894462 -31.22410679 122.32346746 -40.11328125 117.1875 C-49.06799452 111.06147185 -51.37110852 103.68504836 -53.34765625 93.2890625 C-53.50621094 92.37125 -53.66476563 91.4534375 -53.828125 90.5078125 C-55.148125 90.5078125 -56.468125 90.5078125 -57.828125 90.5078125 C-61.23787274 96.72640982 -61.47552694 103.44680057 -59.671875 110.24609375 C-56.86283882 117.77587129 -52.52004082 122.30544417 -45.5859375 126.21875 C-44.71582031 126.85683594 -44.71582031 126.85683594 -43.828125 127.5078125 C-43.828125 128.4978125 -43.828125 129.4878125 -43.828125 130.5078125 C-56.53232384 131.27006443 -70.9583687 127.60921184 -81.453125 120.2578125 C-85.94520938 115.05645164 -86.04663051 109.37284097 -85.828125 102.6953125 C-84.77761691 93.2165901 -80.30789017 84.77043272 -73.24609375 78.37109375 C-63.25252612 70.67007314 -52.54725713 66.75248727 -40.61328125 63.05078125 C-33.11924482 60.85636793 -33.11924482 60.85636793 -26.828125 56.5078125 C-26.6790538 54.4332769 -26.6790538 54.4332769 -27.828125 52.5078125 C-33.27763119 49.9837368 -38.75796951 50.16147914 -44.640625 50.1953125 C-45.66309326 50.20095215 -46.68556152 50.2065918 -47.73901367 50.21240234 C-68.72601554 50.54409582 -92.98297537 55.82617187 -108.96875 70.31640625 C-111.828125 72.5078125 -111.828125 72.5078125 -114.203125 72.3203125 C-114.739375 72.0521875 -115.275625 71.7840625 -115.828125 71.5078125 C-118.20669514 49.42568164 -114.68102866 30.64093137 -101.28125 12.40234375 C-76.43568981 -18.40861084 -31.34629531 -23.23169511 0 0 Z M-83.828125 19.5078125 C-90.28878882 27.10702589 -90.28878882 27.10702589 -92.828125 36.5078125 C-91.04032842 39.10011754 -89.86809685 39.49448855 -86.828125 40.5078125 C-79.60799185 41.40848351 -74.3450164 39.37719006 -67.828125 36.5078125 C-65.91825065 35.76103602 -64.00143193 35.0317797 -62.078125 34.3203125 C-61.21703125 33.99675781 -60.3559375 33.67320313 -59.46875 33.33984375 C-46.09040102 29.12447639 -30.6796381 30.86219095 -18.265625 37.1328125 C-17.50121094 37.55820312 -16.73679687 37.98359375 -15.94921875 38.421875 C-10.91691184 40.99826786 -5.37749956 41.19812242 0.171875 40.5078125 C3.25879077 38.71263527 3.25879077 38.71263527 5.171875 36.5078125 C2.79216888 25.52455347 -5.19956851 17.61974831 -14.328125 11.5078125 C-35.89945214 -1.14489727 -66.2572793 0.12510501 -83.828125 19.5078125 Z M-13.390625 72.1953125 C-14.54477571 73.62614317 -15.6904533 75.06384457 -16.828125 76.5078125 C-18.04873538 77.93185795 -19.27775334 79.34874582 -20.515625 80.7578125 C-21.08925781 81.4178125 -21.66289063 82.0778125 -22.25390625 82.7578125 C-23.828125 84.5078125 -23.828125 84.5078125 -26.203125 86.7578125 C-29.36391126 90.16173617 -29.04618951 94.16307781 -28.98828125 98.60546875 C-28.78889072 100.97383916 -28.21771574 102.57782536 -26.828125 104.5078125 C-23.76758931 106.03808035 -21.12586005 106.12233508 -17.828125 105.5078125 C-6.70705641 100.86485812 1.20839224 91.24909942 6.171875 80.5078125 C6.501875 79.79367188 6.831875 79.07953125 7.171875 78.34375 C8.42510146 75.35614764 9.18009105 72.88575067 9.109375 69.6328125 C8.33361601 67.41948062 8.33361601 67.41948062 6.484375 66.1953125 C-1.20701307 63.90868362 -8.21966415 66.29392444 -13.390625 72.1953125 Z " fill="#8D53FA" transform="translate(125.828125,24.4921875)"/>
<path d="M0 0 C-1.44064377 3.74165875 -1.44064377 3.74165875 -3.90087891 4.87792969 C-4.66835449 5.05743164 -5.43583008 5.23693359 -6.2265625 5.421875 C-7.51578613 5.7465979 -7.51578613 5.7465979 -8.83105469 6.07788086 C-9.75305664 6.29968018 -10.67505859 6.52147949 -11.625 6.75 C-28.34612516 11.15322963 -44.65918316 18.48515553 -55 33 C-57.80607352 38.07723927 -59.56963781 43.39774808 -61 49 C-64.97940152 47.50115053 -66.43463485 45.25287411 -68.625 41.6875 C-69.21539062 40.74261719 -69.80578125 39.79773438 -70.4140625 38.82421875 C-74.06187446 32.32823834 -74.06187446 32.32823834 -73.8828125 28.484375 C-70.32088711 18.46054956 -57.14298341 11.3562493 -48 7 C-36.56100117 2.07411534 -11.43636131 -7.62424087 0 0 Z " fill="#8D53F9" transform="translate(88,79)"/>
<path d="M0 0 C-1.44064377 3.74165875 -1.44064377 3.74165875 -3.90087891 4.87792969 C-4.66835449 5.05743164 -5.43583008 5.23693359 -6.2265625 5.421875 C-7.51578613 5.7465979 -7.51578613 5.7465979 -8.83105469 6.07788086 C-9.75305664 6.29968018 -10.67505859 6.52147949 -11.625 6.75 C-25.35289721 10.36501293 -37.14328655 15.67738737 -48 25 C-49.32662408 26.0088837 -50.65816566 27.0114362 -52 28 C-50.4705003 24.55862568 -48.54630448 21.7777867 -46 19 C-45.01 19 -44.02 19 -43 19 C-43 18.01 -43 17.02 -43 16 C-40.01944414 13.57396616 -37.99676908 12.08667557 -34.125 11.75 C-33.42375 11.8325 -32.7225 11.915 -32 12 C-32 11.34 -32 10.68 -32 10 C-29.03 8.68 -26.06 7.36 -23 6 C-25.67041325 2.66522291 -25.67041325 2.66522291 -29.1875 2.8125 C-30.5796875 2.9053125 -30.5796875 2.9053125 -32 3 C-32 3.66 -32 4.32 -32 5 C-34.64 5.33 -37.28 5.66 -40 6 C-40 6.66 -40 7.32 -40 8 C-42.31 8 -44.62 8 -47 8 C-43.48333824 4.87509072 -39.56219703 3.6977075 -35.125 2.4375 C-33.99868164 2.1132605 -33.99868164 2.1132605 -32.84960938 1.7824707 C-7.7746396 -5.18309307 -7.7746396 -5.18309307 0 0 Z " fill="#8754F1" transform="translate(88,79)"/>
<path d="M0 0 C0 0.66 0 1.32 0 2 C-2.7202962 4.10163352 -5.55564191 5.99776181 -8.3984375 7.9296875 C-10.87404633 9.8997666 -11.9152372 11.08551682 -13 14 C-14.32 14 -15.64 14 -17 14 C-16.979375 15.27875 -16.95875 16.5575 -16.9375 17.875 C-16.875 21.75 -16.875 21.75 -18 24 C-17.34 24.66 -16.68 25.32 -16 26 C-14.72677271 28.32176742 -13.84137584 30.47587248 -13 33 C-12.01 32.505 -12.01 32.505 -11 32 C-10.566875 30.2984375 -10.566875 30.2984375 -10.125 28.5625 C-9 25 -9 25 -6.9296875 23.77734375 C-6.29289062 23.52082031 -5.65609375 23.26429687 -5 23 C-5.19335938 23.56847656 -5.38671875 24.13695313 -5.5859375 24.72265625 C-7.18136423 29.45364938 -8.66900586 34.18794425 -10 39 C-13.97940152 37.50115053 -15.43463485 35.25287411 -17.625 31.6875 C-18.21539063 30.74261719 -18.80578125 29.79773438 -19.4140625 28.82421875 C-23.05245741 22.3450081 -23.05245741 22.3450081 -22.90234375 18.49609375 C-20.28968816 11.26887765 -8.15745345 0 0 0 Z " fill="#875CE3" transform="translate(37,89)"/>
<path d="M0 0 C2.76276177 0.52268466 5.3260876 1.10869587 8 2 C8.495 3.485 8.495 3.485 9 5 C9.99 5 10.98 5 12 5 C11.67 6.32 11.34 7.64 11 9 C11.66 9 12.32 9 13 9 C13.12375 9.804375 13.2475 10.60875 13.375 11.4375 C13.58125 12.283125 13.7875 13.12875 14 14 C14.66 14.33 15.32 14.66 16 15 C16.13536774 16.43489809 16.23217143 17.87347107 16.3125 19.3125 C16.37050781 20.11300781 16.42851562 20.91351563 16.48828125 21.73828125 C16 24 16 24 13.94140625 25.76953125 C7.81022862 28.33436651 -0.15541533 28.03075152 -6.53515625 26.3203125 C-8.4375 25.5 -8.4375 25.5 -11 24 C-11 23.34 -11 22.68 -11 22 C-12.32 22 -13.64 22 -15 22 C-15 21.34 -15 20.68 -15 20 C-16.98567708 20.03255208 -18.97135417 20.06510417 -20.95703125 20.09765625 C-23 20 -23 20 -26 19 C-28.39254576 18.77439324 -30.78928123 18.59151405 -33.1875 18.4375 C-34.45980469 18.35371094 -35.73210937 18.26992188 -37.04296875 18.18359375 C-38.01878906 18.12300781 -38.99460937 18.06242187 -40 18 C-40 17.34 -40 16.68 -40 16 C-27.72521787 15.45757919 -16.95967773 16.88247277 -6.12109375 22.9140625 C-2.44285743 24.79721111 0.89530608 25.17491414 5 25.25 C5.845625 25.27578125 6.69125 25.3015625 7.5625 25.328125 C10.47264128 24.93637521 11.8220601 23.91578046 14 22 C12.21198142 13.74760653 8.0342188 9.27106084 2.30078125 3.40625 C0 1 0 1 0 0 Z " fill="#8665D4" transform="translate(116,39)"/>
<path d="M0 0 C1.00273157 3.2177207 0.99373398 5.7864626 0.625 9.125 C0.53476562 9.99382812 0.44453125 10.86265625 0.3515625 11.7578125 C0 14 0 14 -1 16 C-0.34 16 0.32 16 1 16 C1.144375 17.2375 1.28875 18.475 1.4375 19.75 C1.78688502 22.56504499 2.20379366 25.2701497 3 28 C4.98 28 6.96 28 9 28 C9 28.99 9 29.98 9 31 C13.455 31.99 13.455 31.99 18 33 C18 33.66 18 34.32 18 35 C18.88751953 34.98259766 18.88751953 34.98259766 19.79296875 34.96484375 C24.00231785 34.91677614 27.8922333 34.93993117 32 36 C32 35.01 32 34.02 32 33 C36.75 34.875 36.75 34.875 39 36 C39 36.99 39 37.98 39 39 C26.29580116 39.76225193 11.8697563 36.10139934 1.375 28.75 C-3.27965381 23.36040085 -3.19884329 17.6350867 -2.75 10.75 C-2.39492928 6.80244905 -1.61347361 3.62370302 0 0 Z " fill="#8461D6" transform="translate(43,116)"/>
<path d="M0 0 C0.74564209 -0.00064453 1.49128418 -0.00128906 2.25952148 -0.00195312 C7.92923291 0.05213193 13.26667839 0.67857612 18.75 2.1875 C18.75 2.5175 18.75 2.8475 18.75 3.1875 C17.48542969 3.24808594 16.22085938 3.30867187 14.91796875 3.37109375 C13.25780129 3.45550904 11.59764563 3.54015655 9.9375 3.625 C8.68743164 3.68397461 8.68743164 3.68397461 7.41210938 3.74414062 C6.60966797 3.78603516 5.80722656 3.82792969 4.98046875 3.87109375 C3.87288208 3.92608032 3.87288208 3.92608032 2.74291992 3.98217773 C0.542505 4.13592141 0.542505 4.13592141 -2.25 5.1875 C-2.25 4.5275 -2.25 3.8675 -2.25 3.1875 C-3.24 3.5175 -4.23 3.8475 -5.25 4.1875 C-5.25 3.5275 -5.25 2.8675 -5.25 2.1875 C-10.2 2.8475 -15.15 3.5075 -20.25 4.1875 C-20.58 5.1775 -20.91 6.1675 -21.25 7.1875 C-23.89 7.1875 -26.53 7.1875 -29.25 7.1875 C-26.68397243 4.62147243 -24.46760439 4.16607301 -21 3.125 C-19.88109375 2.78339844 -18.7621875 2.44179687 -17.609375 2.08984375 C-11.70498963 0.50389838 -6.100615 -0.00545733 0 0 Z " fill="#8262CD" transform="translate(81.25,9.8125)"/>
<path d="M0 0 C2.35953094 2.35953094 2.49141413 3.77895617 3 7 C3.99 7.33 4.98 7.66 6 8 C6.66666667 9.33333333 7.33333333 10.66666667 8 12 C9.32392972 13.01241685 10.65599167 14.01439389 12 15 C12 15.66 12 16.32 12 17 C13.3303125 17.433125 13.3303125 17.433125 14.6875 17.875 C18 19 18 19 20.1484375 20.05078125 C24.10820691 21.36889627 27.791696 21.32942165 31.9375 21.3125 C33.11602539 21.33666992 33.11602539 21.33666992 34.31835938 21.36132812 C39.39254312 21.3655743 42.46713913 20.45220342 47 18 C47.99 18.33 48.98 18.66 50 19 C48.75264433 19.6509259 47.50198168 20.29551669 46.25 20.9375 C45.55390625 21.29714844 44.8578125 21.65679687 44.140625 22.02734375 C36.46240015 25.51617219 27.044605 25.01964009 19.1875 22.375 C10.93757607 18.94053385 4.76962351 14.26039239 1 6 C0.1875 2.5 0.1875 2.5 0 0 Z " fill="#8465D0" transform="translate(74,123)"/>
<path d="M0 0 C0.6875 2.125 0.6875 2.125 1 4 C-2.33340534 2.72425228 -5.4286641 1.26463422 -8.5625 -0.4375 C-24.05858775 -8.16268829 -39.89076984 -7.36974339 -56 -2 C-55.3125 -4.4375 -55.3125 -4.4375 -54 -7 C-38.21934858 -11.50413193 -13.85236077 -9.23490718 0 0 Z " fill="#7A60C7" transform="translate(115,35)"/>
<path d="M0 0 C1.9375 1.8125 1.9375 1.8125 2.25 4.5 C2.146875 5.263125 2.04375 6.02625 1.9375 6.8125 C1.69 6.19375 1.4425 5.575 1.1875 4.9375 C-0.32845744 2.36037236 -1.29801731 1.8727832 -4.0625 0.8125 C-6.49112478 0.67361357 -6.49112478 0.67361357 -9 1 C-10.25103516 1.11408203 -10.25103516 1.11408203 -11.52734375 1.23046875 C-17.1731877 2.52666405 -20.09246419 5.72777087 -23.5625 10.1875 C-26.53037425 13.98094491 -29.50563464 17.55204008 -33.0625 20.8125 C-33.7225 20.8125 -34.3825 20.8125 -35.0625 20.8125 C-34.7325 19.1625 -34.4025 17.5125 -34.0625 15.8125 C-33.0725 15.8125 -32.0825 15.8125 -31.0625 15.8125 C-30.7325 14.8225 -30.4025 13.8325 -30.0625 12.8125 C-29.0725 12.4825 -28.0825 12.1525 -27.0625 11.8125 C-25.83729736 8.80402582 -25.83729736 8.80402582 -25.0625 5.8125 C-24.4025 5.8125 -23.7425 5.8125 -23.0625 5.8125 C-23.0625 5.1525 -23.0625 4.4925 -23.0625 3.8125 C-22.0725 3.8125 -21.0825 3.8125 -20.0625 3.8125 C-20.0625 3.1525 -20.0625 2.4925 -20.0625 1.8125 C-13.23307906 -1.16761095 -7.17279128 -2.78128641 0 0 Z " fill="#8261D7" transform="translate(134.0625,90.1875)"/>
<path d="M0 0 C0.99 0 1.98 0 3 0 C2.49232781 5.90745826 1.25954218 10.6158538 -1.1875 16 C-1.49631104 16.69480469 -1.80512207 17.38960937 -2.12329102 18.10546875 C-4.50181761 23.29188521 -7.28124332 27.64633364 -11 32 C-11.33 30.68 -11.66 29.36 -12 28 C-11.071875 27.5359375 -11.071875 27.5359375 -10.125 27.0625 C-7.26993808 24.29141049 -7.14434009 21.81126041 -6.58984375 17.9609375 C-6.39519531 17.31382813 -6.20054687 16.66671875 -6 16 C-5.01 15.67 -4.02 15.34 -3 15 C-2.86722656 14.33613281 -2.73445312 13.67226562 -2.59765625 12.98828125 C-1.73177083 8.65885417 -0.86588542 4.32942708 0 0 Z " fill="#8862DA" transform="translate(150,96)"/>
<path d="M0 0 C0.66 0.33 1.32 0.66 2 1 C1.443125 1.37769531 0.88625 1.75539062 0.3125 2.14453125 C-6.44454374 7.01827733 -13.32818814 13.22134595 -15.71875 21.484375 C-16.06991135 23.86497151 -16.06991135 23.86497151 -16 27 C-15.34 27 -14.68 27 -14 27 C-14 27.66 -14 28.32 -14 29 C-14.99 29 -15.98 29 -17 29 C-17.91297308 24.02936879 -17.91297308 19.97063121 -17 15 C-16.01 14.67 -15.02 14.34 -14 14 C-12.89363605 11.60931266 -12.89363605 11.60931266 -12 9 C-11.34 8.01 -10.68 7.02 -10 6 C-9.67 5.34 -9.34 4.68 -9 4 C-8.01 4.33 -7.02 4.66 -6 5 C-6 4.34 -6 3.68 -6 3 C-5.01 3 -4.02 3 -3 3 C-3 2.34 -3 1.68 -3 1 C-2.01 0.67 -1.02 0.34 0 0 Z " fill="#8060D5" transform="translate(50,36)"/>
<path d="M0 0 C-1.54107422 0.61875 -1.54107422 0.61875 -3.11328125 1.25 C-11.94931926 4.89578755 -19.52761702 8.92947111 -27 15 C-27.92425781 15.73863281 -28.84851562 16.47726563 -29.80078125 17.23828125 C-30.52652344 17.81964844 -31.25226562 18.40101562 -32 19 C-30.4705003 15.55862568 -28.54630448 12.7777867 -26 10 C-25.01 10 -24.02 10 -23 10 C-23 9.01 -23 8.02 -23 7 C-20.01944414 4.57396616 -17.99676908 3.08667557 -14.125 2.75 C-13.42375 2.8325 -12.7225 2.915 -12 3 C-12 2.34 -12 1.68 -12 1 C-3.96428571 -1.27678571 -3.96428571 -1.27678571 0 0 Z " fill="#895EE2" transform="translate(68,88)"/>
<path d="M0 0 C-0.5625 1.875 -0.5625 1.875 -2 4 C-5.91324696 5.52181826 -8.98417068 6.60633173 -13 5 C-11.02 4.34 -9.04 3.68 -7 3 C-7 2.34 -7 1.68 -7 1 C-12.94 1 -18.88 1 -25 1 C-25 0.67 -25 0.34 -25 0 C-5.15337423 -3.43558282 -5.15337423 -3.43558282 0 0 Z " fill="#8267C7" transform="translate(88,79)"/>
<path d="M0 0 C7.42205323 -0.36501901 7.42205323 -0.36501901 9.78125 1.125 C11.58891135 3.90601747 11.07094271 5.94566621 10.6875 9.1875 C10.56761719 10.27417969 10.44773437 11.36085938 10.32421875 12.48046875 C10.21722656 13.31191406 10.11023438 14.14335938 10 15 C10.66 15 11.32 15 12 15 C11.67 15.99 11.34 16.98 11 18 C6.7117768 13.7117768 5.59004205 8.90042053 5 3 C1.2236068 2.7018576 1.2236068 2.7018576 -1 4 C-0.67 2.68 -0.34 1.36 0 0 Z " fill="#8B58F1" transform="translate(67,112)"/>
<path d="M0 0 C1.81757812 0.07250977 1.81757812 0.07250977 3.671875 0.14648438 C5.57839844 0.2305957 5.57839844 0.2305957 7.5234375 0.31640625 C9.4415625 0.3947168 9.4415625 0.3947168 11.3984375 0.47460938 C14.5653345 0.60459395 17.73194037 0.73957027 20.8984375 0.87890625 C20.8984375 1.20890625 20.8984375 1.53890625 20.8984375 1.87890625 C20.03230835 1.90078003 20.03230835 1.90078003 19.14868164 1.9230957 C7.638538 2.24570347 -3.47127619 2.96322714 -14.765625 5.2578125 C-18.1015625 5.87890625 -18.1015625 5.87890625 -22.1015625 5.87890625 C-22.1015625 5.21890625 -22.1015625 4.55890625 -22.1015625 3.87890625 C-21.11414062 3.67394531 -20.12671875 3.46898438 -19.109375 3.2578125 C-17.82804687 2.98839844 -16.54671875 2.71898438 -15.2265625 2.44140625 C-13.95039062 2.17457031 -12.67421875 1.90773438 -11.359375 1.6328125 C-3.64176083 -0.15315817 -3.64176083 -0.15315817 0 0 Z " fill="#8160CB" transform="translate(70.1015625,72.12109375)"/>
<path d="M0 0 C-1 3 -1 3 -2.890625 4.02734375 C-3.66921875 4.32769531 -4.4478125 4.62804687 -5.25 4.9375 C-9.06152759 6.5150991 -11.82553798 8.34031561 -15 11 C-18.1875 12.8125 -18.1875 12.8125 -21 14 C-21.66 13.67 -22.32 13.34 -23 13 C-18.60820194 8.71276856 -14.14397356 5.83650341 -8.6875 3.125 C-8.06472168 2.8148999 -7.44194336 2.5047998 -6.80029297 2.18530273 C-2.28165683 0 -2.28165683 0 0 0 Z " fill="#835ED8" transform="translate(74,92)"/>
<path d="M0 0 C0 0.33 0 0.66 0 1 C-3.96 1.66 -7.92 2.32 -12 3 C-12 3.66 -12 4.32 -12 5 C-14.64738916 6.4606285 -15.89448334 7 -19 7 C-19.33 7.99 -19.66 8.98 -20 10 C-25.61 10 -31.22 10 -37 10 C-37.33 9.34 -37.66 8.68 -38 8 C-36.98292969 8.06960937 -36.98292969 8.06960937 -35.9453125 8.140625 C-28.60862404 8.42515031 -23.61036135 7.00102295 -17 4 C-5.60864553 -0.60634006 -5.60864553 -0.60634006 0 0 Z " fill="#8966D3" transform="translate(75,56)"/>
<path d="M0 0 C4.75900121 1.58633374 6.02020356 5.54354468 8.4140625 9.765625 C10.42928664 13.87549097 11.32347437 17.48982912 12 22 C11.34 22 10.68 22 10 22 C10 21.01 10 20.02 10 19 C9.34 19 8.68 19 8 19 C8 17.02 8 15.04 8 13 C7.01 13 6.02 13 5 13 C4.67 10.36 4.34 7.72 4 5 C2.68 4.67 1.36 4.34 0 4 C0 2.68 0 1.36 0 0 Z " fill="#8965DD" transform="translate(139,40)"/>
<path d="M0 0 C0.66 0.33 1.32 0.66 2 1 C1.835 1.495 1.67 1.99 1.5 2.5 C0.58807341 7.05963297 0.51956112 11.55868337 2 16 C6.02248275 18.01124138 10.25733112 17.21604913 14.4375 16 C15.283125 15.67 16.12875 15.34 17 15 C17 15.66 17 16.32 17 17 C11.32426477 19.92941173 5.03933757 19.71183038 -1 18 C-1.22181406 15.56304285 -1.42791119 13.126474 -1.625 10.6875 C-1.68945312 9.99720703 -1.75390625 9.30691406 -1.8203125 8.59570312 C-2.11802847 4.7440028 -2.20763723 3.31145584 0 0 Z " fill="#8361D0" transform="translate(97,112)"/>
<path d="M0 0 C0.33 0 0.66 0 1 0 C1.14695312 0.6290625 1.29390625 1.258125 1.4453125 1.90625 C2.95530128 7.66850604 4.9043413 11.80427501 8.6953125 16.40625 C10 18 10 18 11 20 C9.02 20 7.04 20 5 20 C4.28670456 18.33564398 3.57438165 16.67086389 2.8671875 15.00390625 C2.04884774 13.11287789 1.18209276 11.24301409 0.3125 9.375 C-0.90979064 6.23196692 -1.38974258 4.31281197 -1 1 C-0.67 0.67 -0.34 0.34 0 0 Z " fill="#8862DD" transform="translate(64,129)"/>
<path d="M0 0 C3.24992446 -0.05819424 6.49971435 -0.09366116 9.75 -0.125 C10.67039062 -0.14175781 11.59078125 -0.15851562 12.5390625 -0.17578125 C13.42851563 -0.18222656 14.31796875 -0.18867188 15.234375 -0.1953125 C16.05131836 -0.20578613 16.86826172 -0.21625977 17.70996094 -0.22705078 C20.21887518 0.02170084 21.83395625 0.74299871 24 2 C22.73542969 2.06058594 21.47085938 2.12117187 20.16796875 2.18359375 C18.50780129 2.26800904 16.84764563 2.35265655 15.1875 2.4375 C14.35412109 2.47681641 13.52074219 2.51613281 12.66210938 2.55664062 C11.85966797 2.59853516 11.05722656 2.64042969 10.23046875 2.68359375 C9.12288208 2.73858032 9.12288208 2.73858032 7.99291992 2.79467773 C5.792505 2.94842141 5.792505 2.94842141 3 4 C3 3.34 3 2.68 3 2 C2.01 2.33 1.02 2.66 0 3 C0 2.01 0 1.02 0 0 Z " fill="#865DE6" transform="translate(76,11)"/>
<path d="M0 0 C0.66 0.33 1.32 0.66 2 1 C1.96519531 2.03060547 1.96519531 2.03060547 1.9296875 3.08203125 C1.91164063 3.98308594 1.89359375 4.88414063 1.875 5.8125 C1.84019531 7.15248047 1.84019531 7.15248047 1.8046875 8.51953125 C1.81714173 11.25402714 1.81714173 11.25402714 4 14 C3.625 16.1875 3.625 16.1875 3 18 C2.67 18 2.34 18 2 18 C1.67 20.31 1.34 22.62 1 25 C2.32 25.33 3.64 25.66 5 26 C3.0625 26.5625 3.0625 26.5625 1 27 C-1.91595771 24.08404229 -0.92570629 15.23683412 -1 11 C-0.82806909 7.30558215 -0.49520041 3.66448305 0 0 Z " fill="#835DD6" transform="translate(10,70)"/>
<path d="M0 0 C0.33 0.66 0.66 1.32 1 2 C0.30306589 3.69255426 -0.40188872 5.38267903 -1.1640625 7.046875 C-2.41192045 9.96243096 -3.18742413 12.93721402 -4 16 C-7.82946843 14.54744301 -9.12050295 12.57104439 -11 9 C-10.01 9.33 -9.02 9.66 -8 10 C-8 10.66 -8 11.32 -8 12 C-6.68 12.33 -5.36 12.66 -4 13 C-4.020625 11.9275 -4.04125 10.855 -4.0625 9.75 C-3.97314376 4.38862559 -3.97314376 4.38862559 -3 2 C-2.01 1.34 -1.02 0.68 0 0 Z " fill="#7F60CD" transform="translate(31,112)"/>
<path d="M0 0 C2.76276177 0.52268466 5.3260876 1.10869587 8 2 C8.33 2.99 8.66 3.98 9 5 C9.99 5 10.98 5 12 5 C11.67 6.32 11.34 7.64 11 9 C7.40303663 8.42703238 5.74677205 7.10347171 3.25 4.5 C2.63640625 3.8709375 2.0228125 3.241875 1.390625 2.59375 C0 1 0 1 0 0 Z " fill="#885EDF" transform="translate(116,39)"/>
<path d="M0 0 C-1.98 0.33 -3.96 0.66 -6 1 C-6 1.66 -6 2.32 -6 3 C-8.64 3.33 -11.28 3.66 -14 4 C-14 4.66 -14 5.32 -14 6 C-16.31 6 -18.62 6 -21 6 C-17.73508439 3.21521904 -14.58430184 2.00526708 -10.5 0.75 C-9.3759375 0.39421875 -8.251875 0.0384375 -7.09375 -0.328125 C-4.15972184 -0.96531293 -2.75336094 -1.05275565 0 0 Z " fill="#8660D6" transform="translate(62,81)"/>
<path d="M0 0 C3.3 0 6.6 0 10 0 C10 0.99 10 1.98 10 3 C7.36 3 4.72 3 2 3 C2 3.66 2 4.32 2 5 C0.68 4.67 -0.64 4.34 -2 4 C-1.34 2.68 -0.68 1.36 0 0 Z " fill="#8C54F9" transform="translate(71,79)"/>
<path d="M0 0 C0.33 0 0.66 0 1 0 C0.49778611 5.02213894 -0.64100832 8.56509564 -3 13 C-3.28875 14.0725 -3.5775 15.145 -3.875 16.25 C-5 19 -5 19 -7.625 20.375 C-8.800625 20.684375 -8.800625 20.684375 -10 21 C-8.62302855 18.18260219 -7.13009615 15.46521326 -5.5625 12.75 C-3.24022224 8.60700151 -1.5494499 4.48524971 0 0 Z " fill="#8362C9" transform="translate(134,97)"/>
<path d="M0 0 C0.66 0.66 1.32 1.32 2 2 C1.625 5.125 1.625 5.125 1 8 C0.34 8 -0.32 8 -1 8 C-1.33 10.64 -1.66 13.28 -2 16 C-2.66 16 -3.32 16 -4 16 C-3.47606294 10.13190493 -2.23891142 5.45126259 0 0 Z " fill="#835EDD" transform="translate(15,53)"/>
<path d="M0 0 C0.66 0.99 1.32 1.98 2 3 C1.34 3 0.68 3 0 3 C-0.0825 3.5775 -0.165 4.155 -0.25 4.75 C-1.21797787 7.6539336 -2.68694284 9.03740604 -5 11 C-5.66 11 -6.32 11 -7 11 C-7 11.66 -7 12.32 -7 13 C-7.66 13 -8.32 13 -9 13 C-7.50923566 9.7173068 -5.61379679 7.06922559 -3.375 4.25 C-2.74335938 3.45078125 -2.11171875 2.6515625 -1.4609375 1.828125 C-0.97882812 1.22484375 -0.49671875 0.6215625 0 0 Z " fill="#845ED9" transform="translate(29,32)"/>
<path d="M0 0 C3.85772618 2.57181746 4.56426362 4.69279085 6 9 C6.99 8.67 7.98 8.34 9 8 C9 9.32 9 10.64 9 12 C5.52424872 11.43206678 3.97503634 10.33831755 1.6875 7.6875 C1.15511719 7.09324219 0.62273438 6.49898438 0.07421875 5.88671875 C-1 4 -1 4 -0.66796875 1.76953125 C-0.44753906 1.18558594 -0.22710938 0.60164063 0 0 Z " fill="#8158E8" transform="translate(18,113)"/>
<path d="M0 0 C-2.62035018 1.36389525 -5.24556999 2.71632173 -7.875 4.0625 C-8.99455078 4.64741211 -8.99455078 4.64741211 -10.13671875 5.24414062 C-10.85214844 5.60830078 -11.56757813 5.97246094 -12.3046875 6.34765625 C-13.2944458 6.85824585 -13.2944458 6.85824585 -14.30419922 7.37915039 C-14.86381348 7.58403076 -15.42342773 7.78891113 -16 8 C-16.66 7.67 -17.32 7.34 -18 7 C-17 5 -17 5 -13.9375 3.875 C-12.4834375 3.441875 -12.4834375 3.441875 -11 3 C-11 2.34 -11 1.68 -11 1 C-4.03571429 -1.27678571 -4.03571429 -1.27678571 0 0 Z " fill="#8463D0" transform="translate(39,82)"/>
<path d="M0 0 C0.33 0.66 0.66 1.32 1 2 C-0.98 2.33 -2.96 2.66 -5 3 C-5 3.66 -5 4.32 -5 5 C-9.455 5.495 -9.455 5.495 -14 6 C-13.34 5.67 -12.68 5.34 -12 5 C-12 4.34 -12 3.68 -12 3 C-10.35 3 -8.7 3 -7 3 C-7 2.34 -7 1.68 -7 1 C-3.535 0.505 -3.535 0.505 0 0 Z " fill="#885EE7" transform="translate(80,81)"/>
<path d="M0 0 C3 3.625 3 3.625 3 7 C0.03 7.66 -2.94 8.32 -6 9 C-5.34 8.67 -4.68 8.34 -4 8 C-3.32060826 6.00428677 -2.65438441 4.00405227 -2 2 C-1.34 1.34 -0.68 0.68 0 0 Z " fill="#875AE5" transform="translate(45,72)"/>
<path d="M0 0 C0.99 0.33 1.98 0.66 3 1 C-0.06093224 4.93548431 -2.49115974 7.68116787 -7 10 C-7 8.68 -7 7.36 -7 6 C-6.01 6 -5.02 6 -4 6 C-4 5.34 -4 4.68 -4 4 C-3.34 4 -2.68 4 -2 4 C-2 3.01 -2 2.02 -2 1 C-1.34 0.67 -0.68 0.34 0 0 Z " fill="#875CDC" transform="translate(135,128)"/>
<path d="M0 0 C0.74056641 0.00451172 1.48113281 0.00902344 2.24414062 0.01367188 C4.05862899 0.02537825 5.87307534 0.04331102 7.6875 0.0625 C8.0175 1.3825 8.3475 2.7025 8.6875 4.0625 C7.6975 4.0625 6.7075 4.0625 5.6875 4.0625 C5.3575 3.4025 5.0275 2.7425 4.6875 2.0625 C-1.2525 2.0625 -7.1925 2.0625 -13.3125 2.0625 C-13.3125 1.7325 -13.3125 1.4025 -13.3125 1.0625 C-8.8746439 -0.04915232 -4.54293614 -0.05277763 0 0 Z " fill="#8862DD" transform="translate(76.3125,77.9375)"/>
<path d="M0 0 C3.80635497 3.20760251 7.54563567 6.40746109 11 10 C10.67 10.66 10.34 11.32 10 12 C9.34 11.67 8.68 11.34 8 11 C8 10.34 8 9.68 8 9 C7.34 9 6.68 9 6 9 C6 8.34 6 7.68 6 7 C5.38125 6.896875 4.7625 6.79375 4.125 6.6875 C2 6 2 6 0 3 C0 2.01 0 1.02 0 0 Z " fill="#8864D7" transform="translate(128,27)"/>
<path d="M0 0 C-2.42195448 2.87255066 -4.59742703 3.70838919 -8.1875 4.6875 C-9.08855469 4.93886719 -9.98960938 5.19023438 -10.91796875 5.44921875 C-11.60503906 5.63097656 -12.29210938 5.81273437 -13 6 C-12.3125 3.5625 -12.3125 3.5625 -11 1 C-7.41404883 -0.29492681 -3.78328797 -0.08798344 0 0 Z " fill="#8360DD" transform="translate(72,27)"/>
<path d="M0 0 C0 0.99 0 1.98 0 3 C0.66 3.33 1.32 3.66 2 4 C-0.97 3.505 -0.97 3.505 -4 3 C-4 3.66 -4 4.32 -4 5 C-6.64 5.66 -9.28 6.32 -12 7 C-9.20232475 3.70861735 -4.40323273 0 0 0 Z " fill="#875FD8" transform="translate(52,17)"/>
<path d="M0 0 C0.33 0.66 0.66 1.32 1 2 C0 4 0 4 -1.80078125 4.67578125 C-5.54560779 5.22786047 -8.40474186 4.1198345 -12 3 C-12.33 2.34 -12.66 1.68 -13 1 C-11.84371094 1.01740234 -11.84371094 1.01740234 -10.6640625 1.03515625 C-9.15972656 1.04869141 -9.15972656 1.04869141 -7.625 1.0625 C-6.12839844 1.07990234 -6.12839844 1.07990234 -4.6015625 1.09765625 C-2.01567547 1.18006602 -2.01567547 1.18006602 0 0 Z " fill="#8B5DF3" transform="translate(111,129)"/>
<path d="M0 0 C0.66 0.33 1.32 0.66 2 1 C0.41728767 2.27160666 -1.16619635 3.54225285 -2.75 4.8125 C-3.63171875 5.52019531 -4.5134375 6.22789063 -5.421875 6.95703125 C-7.58992929 8.67505002 -9.77728901 10.35373976 -12 12 C-10.4705003 8.55862568 -8.54630448 5.7777867 -6 3 C-5.01 3 -4.02 3 -3 3 C-3 2.34 -3 1.68 -3 1 C-2.01 0.67 -1.02 0.34 0 0 Z " fill="#7C5ECE" transform="translate(48,95)"/>
<path d="M0 0 C4.34885027 0.65891671 8.09420622 1.97199169 12 4 C12.9375 6.1875 12.9375 6.1875 13 8 C8.27626146 6.37621488 4.05818166 3.89006982 0 1 C0 0.67 0 0.34 0 0 Z " fill="#8C6ADC" transform="translate(103,31)"/>
<path d="M0 0 C4.75 1.875 4.75 1.875 7 3 C7 3.99 7 4.98 7 6 C4.36 6 1.72 6 -1 6 C-0.67 4.02 -0.34 2.04 0 0 Z " fill="#8366C7" transform="translate(75,149)"/>
<path d="M0 0 C-1.65 0.33 -3.3 0.66 -5 1 C-5 1.66 -5 2.32 -5 3 C-7.97 3.66 -10.94 4.32 -14 5 C-14.33 4.34 -14.66 3.68 -15 3 C-12.87790224 2.30359327 -10.75221473 1.61811643 -8.625 0.9375 C-6.84996094 0.36322266 -6.84996094 0.36322266 -5.0390625 -0.22265625 C-2 -1 -2 -1 0 0 Z " fill="#8463D5" transform="translate(96,86)"/>
<path d="M0 0 C1.58409994 0.11487748 3.16728963 0.24234508 4.75 0.375 C6.07257813 0.47941406 6.07257813 0.47941406 7.421875 0.5859375 C10 1 10 1 14 3 C10.37 3 6.74 3 3 3 C3 2.34 3 1.68 3 1 C2.01 0.67 1.02 0.34 0 0 Z " fill="#8E66E5" transform="translate(65,151)"/>
<path d="M0 0 C0 4.38968456 -2.12805101 5.76905739 -5 9 C-6.32 8.67 -7.64 8.34 -9 8 C-6.03 5.36 -3.06 2.72 0 0 Z " fill="#8460D0" transform="translate(123,118)"/>
<path d="M0 0 C2.375 -0.125 2.375 -0.125 5 0 C7 2 7 2 7.1953125 3.9453125 C7.13020833 5.96354167 7.06510417 7.98177083 7 10 C6.67 10 6.34 10 6 10 C5.67 7.69 5.34 5.38 5 3 C1.2236068 2.7018576 1.2236068 2.7018576 -1 4 C-0.67 2.68 -0.34 1.36 0 0 Z " fill="#8364CF" transform="translate(67,112)"/>
<path d="M0 0 C3.59391114 1.33488128 6.75490696 2.96022723 10 5 C6.37673261 6.2077558 5.35853631 5.54311128 2 4 C2 3.34 2 2.68 2 2 C1.34 2 0.68 2 0 2 C0 1.34 0 0.68 0 0 Z " fill="#8961D8" transform="translate(112,17)"/>
<path d="M0 0 C0.33 0.99 0.66 1.98 1 3 C0.67 3.33 0.34 3.66 0 4 C-0.07148199 5.35243917 -0.08399454 6.70834367 -0.0625 8.0625 C-0.041875 9.361875 -0.02125 10.66125 0 12 C-2.63033454 9.36966546 -2.77962372 7.67293796 -3 4 C-1.5625 1.625 -1.5625 1.625 0 0 Z " fill="#8366CA" transform="translate(17,103)"/>
<path d="M0 0 C-1.6232687 0.6708712 -3.24867578 1.33657029 -4.875 2 C-6.23238281 2.556875 -6.23238281 2.556875 -7.6171875 3.125 C-10 4 -10 4 -12 4 C-12 3.01 -12 2.02 -12 1 C-3.96428571 -1.27678571 -3.96428571 -1.27678571 0 0 Z " fill="#8162D0" transform="translate(68,88)"/>
<path d="M0 0 C0.99 1.32 1.98 2.64 3 4 C2.34 4.66 1.68 5.32 1 6 C0.01 6 -0.98 6 -2 6 C-2.33 6.66 -2.66 7.32 -3 8 C-2.45276317 4.62537285 -1.9451 2.91765 0 0 Z " fill="#7E59DF" transform="translate(19,45)"/>
<path d="M0 0 C0.33 0.66 0.66 1.32 1 2 C0.360625 2.433125 -0.27875 2.86625 -0.9375 3.3125 C-3.26746003 4.91239177 -3.26746003 4.91239177 -4 8 C-6.0625 8.6875 -6.0625 8.6875 -8 9 C-6.4169423 4.7257442 -3.49431596 2.73468206 0 0 Z " fill="#8662CF" transform="translate(39,24)"/>
<path d="M0 0 C0.99 0.33 1.98 0.66 3 1 C2.319375 1.61875 2.319375 1.61875 1.625 2.25 C-0.05950374 4.06408095 -0.99265971 5.75285627 -2 8 C-2.33 8 -2.66 8 -3 8 C-3.36923077 3.44615385 -3.36923077 3.44615385 -1.5 1.1875 C-1.005 0.795625 -0.51 0.40375 0 0 Z " fill="#875BE5" transform="translate(37,101)"/>
<path d="M0 0 C0.33 0 0.66 0 1 0 C1.66 3.3 2.32 6.6 3 10 C-0.91941982 6.69298952 -0.91941982 6.69298952 -1.3125 3.3125 C-1 1 -1 1 0 0 Z " fill="#8065CF" transform="translate(64,129)"/>
<path d="M0 0 C3.375 -0.1875 3.375 -0.1875 7 0 C9 3 9 3 8.625 5.1875 C8.41875 5.785625 8.2125 6.38375 8 7 C7.79375 6.38125 7.5875 5.7625 7.375 5.125 C5.45224112 2.15346355 3.33405473 1.86975341 0 1 C0 0.67 0 0.34 0 0 Z " fill="#8360D1" transform="translate(92,74)"/>
<path d="M0 0 C0.66 0.33 1.32 0.66 2 1 C3.70363822 1.22622081 5.41328701 1.40888473 7.125 1.5625 C8.03507812 1.64628906 8.94515625 1.73007813 9.8828125 1.81640625 C10.58148438 1.87699219 11.28015625 1.93757813 12 2 C12 2.33 12 2.66 12 3 C10.20909747 3.19466332 8.41723495 3.38051213 6.625 3.5625 C5.12839844 3.71912109 5.12839844 3.71912109 3.6015625 3.87890625 C1 4 1 4 -1 3 C-0.67 2.01 -0.34 1.02 0 0 Z " fill="#8D62ED" transform="translate(36,64)"/>
</svg>
